<?xml version="1.0" standalone="no"?>
<!DOCTYPE svg PUBLIC "-//W3C//DTD SVG 20010904//EN"
 "http://www.w3.org/TR/2001/REC-SVG-20010904/DTD/svg10.dtd">
<svg version="1.0" xmlns="http://www.w3.org/2000/svg"
 width="500.000000pt" height="601.000000pt" viewBox="0 0 500.000000 601.000000"
 preserveAspectRatio="xMidYMid meet">

<g transform="translate(0.000000,601.000000) scale(0.100000,-0.100000)"
fill="#000000" stroke="none">
<path d="M1387 5853 c-6 -34 -1 -43 23 -43 22 0 43 33 37 58 -3 15 -5 14 -11
-3 -5 -11 -10 -26 -12 -32 -8 -28 -26 -12 -20 17 3 17 2 30 -3 30 -5 0 -11
-12 -14 -27z"/>
<path d="M1594 5854 c-4 -14 -2 -30 4 -36 14 -14 44 -6 50 12 4 12 2 13 -9 3
-20 -19 -31 -16 -27 10 2 16 9 21 26 20 13 -2 21 1 17 7 -3 6 -17 10 -30 10
-18 0 -26 -7 -31 -26z"/>
<path d="M1865 5867 c-5 -7 -11 -23 -13 -37 -2 -20 -1 -22 7 -10 9 12 11 12
11 1 0 -11 3 -11 15 -1 8 7 12 16 9 21 -3 5 -1 9 5 9 6 0 8 7 4 16 -4 11 -8
12 -13 4 -5 -8 -9 -8 -11 -2 -3 6 -8 6 -14 -1z"/>
<path d="M1918 5855 c-8 -19 -8 -29 0 -37 18 -18 42 -1 42 32 0 38 -26 41 -42
5z m23 -28 c-8 -8 -11 -5 -11 9 0 27 14 41 18 19 2 -9 -1 -22 -7 -28z"/>
<path d="M1988 5875 c-2 -3 -3 -19 0 -36 3 -22 7 -27 13 -18 18 28 7 74 -13
54z"/>
<path d="M2136 5848 c-15 -38 -13 -46 10 -28 13 12 17 11 24 0 15 -24 21 -5 9
28 -14 41 -25 40 -43 0z"/>
<path d="M2278 5867 c-19 -7 -28 -18 -28 -34 0 -16 -4 -21 -15 -17 -8 4 -12
11 -8 18 15 24 11 35 -10 27 -15 -6 -21 -17 -21 -37 0 -27 3 -29 39 -31 52 -3
85 14 85 44 0 13 -4 23 -10 23 -5 0 -10 -11 -10 -25 0 -19 -4 -23 -17 -18 -11
4 -12 8 -5 11 7 2 12 10 12 17 0 8 8 19 18 24 22 13 5 12 -30 -2z"/>
<path d="M3242 5848 c2 -17 8 -33 14 -35 6 -2 8 10 6 32 -5 44 -24 47 -20 3z"/>
<path d="M3440 5870 c0 -5 -6 -10 -14 -10 -8 0 -17 -4 -20 -9 -10 -16 5 -41
25 -41 15 0 19 7 19 35 0 19 -2 35 -5 35 -3 0 -5 -4 -5 -10z m0 -35 c0 -8 -4
-15 -10 -15 -5 0 -10 7 -10 15 0 8 5 15 10 15 6 0 10 -7 10 -15z"/>
<path d="M3740 5847 c0 -20 4 -37 10 -37 5 0 7 14 3 33 -8 45 -13 47 -13 4z"/>
<path d="M3880 5847 c0 -20 4 -37 10 -37 5 0 7 14 3 33 -8 45 -13 47 -13 4z"/>
<path d="M2443 5856 c4 -10 7 -24 7 -32 0 -8 4 -14 8 -14 13 0 6 54 -8 58 -9
3 -11 -1 -7 -12z"/>
<path d="M2558 5865 c-3 -3 -3 -17 0 -30 6 -35 48 -35 54 0 4 16 1 25 -8 25
-7 0 -19 2 -26 5 -8 3 -17 3 -20 0z m32 -31 c0 -8 -4 -12 -10 -9 -5 3 -10 10
-10 16 0 5 5 9 10 9 6 0 10 -7 10 -16z"/>
<path d="M3968 5863 c-22 -3 -28 -10 -28 -29 0 -17 5 -24 20 -24 22 0 28 25 8
33 -8 4 -7 6 3 6 9 1 19 -8 22 -19 8 -29 23 -24 21 7 -1 29 -5 32 -46 26z"/>
<path d="M1460 5852 c0 -4 6 -14 13 -21 10 -12 8 -13 -8 -7 -15 6 -17 4 -8 -5
17 -17 49 -3 34 15 -9 11 -9 15 1 19 7 3 3 6 -9 6 -13 1 -23 -3 -23 -7z"/>
<path d="M1517 5853 c-15 -14 -7 -43 12 -43 18 0 35 33 23 44 -7 8 -27 7 -35
-1z"/>
<path d="M1680 5850 c13 -8 12 -10 -2 -10 -10 0 -18 -7 -18 -16 0 -25 44 -13
48 14 3 17 -1 22 -20 22 -18 0 -20 -2 -8 -10z"/>
<path d="M1723 5835 c0 -18 5 -25 18 -25 11 0 19 7 19 15 0 8 -6 15 -12 15 -9
0 -8 4 2 10 12 8 11 10 -6 10 -16 0 -21 -6 -21 -25z"/>
<path d="M1773 5844 c-3 -8 -1 -20 5 -26 16 -16 42 -2 42 22 0 24 -38 28 -47
4z"/>
<path d="M2331 5838 c-1 -22 4 -28 19 -28 15 0 20 6 19 28 -2 23 -2 24 -6 5
-2 -13 -8 -23 -13 -23 -5 0 -11 10 -13 23 -4 19 -4 18 -6 -5z"/>
<path d="M2391 5833 c2 -24 2 -25 6 -5 2 12 8 22 13 22 5 0 11 -10 13 -22 4
-20 4 -19 6 5 1 21 -4 27 -19 27 -15 0 -20 -6 -19 -27z"/>
<path d="M2495 5850 c17 -7 17 -9 3 -9 -25 -1 -23 -31 2 -31 15 0 20 7 20 25
0 19 -5 25 -22 24 -22 0 -22 -1 -3 -9z"/>
<path d="M2645 5850 c17 -7 17 -9 3 -9 -25 -1 -23 -31 2 -31 15 0 20 7 20 25
0 19 -5 25 -22 24 -22 0 -22 -1 -3 -9z"/>
<path d="M2684 5845 c-11 -29 26 -50 42 -23 5 8 2 9 -9 5 -12 -4 -17 -1 -17 9
0 11 6 14 16 10 8 -3 12 -2 9 4 -9 15 -35 12 -41 -5z"/>
<path d="M2740 5840 c0 -25 27 -37 43 -20 9 9 8 11 -7 8 -10 -1 -21 3 -24 11
-3 10 0 12 12 8 9 -4 16 -2 16 3 0 6 -9 10 -20 10 -13 0 -20 -7 -20 -20z"/>
<path d="M2802 5835 c0 -16 2 -22 5 -12 2 9 2 23 0 30 -3 6 -5 -1 -5 -18z"/>
<path d="M2840 5850 c13 -8 12 -10 -2 -10 -10 0 -18 -7 -18 -15 0 -9 9 -15 25
-15 20 0 25 5 25 25 0 19 -5 25 -22 25 -19 0 -20 -2 -8 -10z"/>
<path d="M2901 5833 l0 -28 11 25 c11 25 11 25 15 3 5 -28 23 -30 23 -3 0 27
18 25 23 -2 4 -20 4 -19 6 5 1 25 -2 27 -39 27 -37 0 -40 -2 -39 -27z"/>
<path d="M2992 5838 c2 -15 11 -24 26 -26 18 -3 22 1 21 25 l0 28 -11 -25
c-11 -25 -11 -25 -15 -2 -3 12 -9 22 -14 22 -6 0 -9 -10 -7 -22z"/>
<path d="M3053 5835 c0 -18 5 -25 18 -25 11 0 19 7 19 15 0 8 -6 15 -12 15 -9
0 -8 4 2 10 12 8 11 10 -6 10 -16 0 -21 -6 -21 -25z"/>
<path d="M3100 5835 c0 -14 5 -25 10 -25 6 0 10 11 10 25 0 14 -4 25 -10 25
-5 0 -10 -11 -10 -25z"/>
<path d="M3132 5838 c3 -20 10 -23 51 -26 44 -2 47 -1 47 23 0 19 -5 25 -22
24 -14 0 -18 -3 -9 -6 10 -4 5 -10 -15 -18 -30 -13 -44 -11 -44 7 0 5 7 8 15
4 8 -3 15 -1 15 4 0 6 -9 10 -21 10 -15 0 -20 -5 -17 -22z"/>
<path d="M3274 5845 c-4 -9 -2 -21 4 -27 15 -15 44 -1 40 19 -4 23 -36 29 -44
8z"/>
<path d="M3365 5850 c17 -7 17 -9 3 -9 -25 -1 -23 -31 2 -31 15 0 20 7 20 25
0 19 -5 25 -22 24 -22 0 -22 -1 -3 -9z"/>
<path d="M3491 5838 c-1 -22 4 -28 19 -28 15 0 20 6 19 28 -2 23 -2 24 -6 5
-2 -13 -8 -23 -13 -23 -5 0 -11 10 -13 23 -4 19 -4 18 -6 -5z"/>
<path d="M3540 5835 c0 -14 5 -25 10 -25 6 0 10 9 10 20 0 27 18 25 23 -2 4
-20 4 -19 6 5 1 23 -3 27 -24 27 -20 0 -25 -5 -25 -25z"/>
<path d="M3620 5850 c13 -8 12 -10 -2 -10 -10 0 -18 -7 -18 -15 0 -9 9 -15 25
-15 20 0 25 5 25 25 0 19 -5 25 -22 25 -19 0 -20 -2 -8 -10z"/>
<path d="M3680 5823 c0 -21 4 -33 8 -27 4 6 15 13 25 17 9 3 17 16 17 27 0 15
-7 20 -25 20 -22 0 -25 -4 -25 -37z m30 11 c0 -8 -5 -12 -10 -9 -6 4 -8 11 -5
16 9 14 15 11 15 -7z"/>
<path d="M3785 5850 c17 -7 17 -9 3 -9 -25 -1 -23 -31 2 -31 15 0 20 7 20 25
0 19 -5 25 -22 24 -22 0 -22 -1 -3 -9z"/>
<path d="M3830 5834 c6 -14 8 -30 4 -35 -3 -5 -1 -9 4 -9 6 0 15 14 21 31 15
42 13 48 -4 25 -13 -17 -15 -18 -15 -3 0 9 -4 17 -10 17 -6 0 -6 -9 0 -26z"/>
<path d="M3912 5835 c0 -16 2 -22 5 -12 2 9 2 23 0 30 -3 6 -5 -1 -5 -18z"/>
<path d="M1354 5686 c-15 -39 26 -77 47 -44 13 20 11 28 -8 27 -11 0 -13 -3
-5 -6 16 -6 6 -23 -14 -23 -10 0 -14 8 -12 23 2 16 9 22 26 21 12 0 22 3 22 8
0 14 -50 9 -56 -6z"/>
<path d="M1536 5685 c-3 -9 -6 -26 -5 -38 1 -14 4 -9 9 13 9 37 7 52 -4 25z"/>
<path d="M1684 5686 c-10 -26 1 -51 24 -54 12 -2 22 1 22 6 0 6 -9 8 -21 5
-17 -5 -20 -2 -17 18 2 18 9 24 26 23 12 0 22 3 22 8 0 14 -50 9 -56 -6z"/>
<path d="M2132 5668 c-2 -35 0 -38 26 -37 22 1 23 2 5 6 -16 3 -23 13 -26 36
-4 31 -4 31 -5 -5z"/>
<path d="M2170 5690 c0 -5 4 -10 9 -10 5 0 11 -10 13 -22 4 -33 45 -37 51 -6
l4 23 2 -22 c0 -13 5 -23 9 -23 4 0 7 12 6 28 0 15 -4 26 -7 25 -4 -2 -13 -3
-21 -3 -8 0 -16 -10 -19 -22 -3 -21 -5 -20 -16 10 -12 30 -31 44 -31 22z"/>
<path d="M2530 5690 c0 -5 -7 -10 -15 -10 -9 0 -15 -9 -15 -24 0 -23 4 -25 50
-24 44 0 50 2 51 21 0 22 0 22 11 0 13 -27 28 -30 28 -5 1 16 1 16 11 0 16
-28 49 -23 49 8 0 22 -4 25 -27 22 -16 -2 -33 -10 -40 -18 -11 -13 -12 -13
-13 4 0 15 -6 17 -35 14 -24 -3 -35 0 -35 9 0 7 -4 13 -10 13 -5 0 -10 -4 -10
-10z m0 -35 c0 -8 -4 -15 -10 -15 -5 0 -10 7 -10 15 0 8 5 15 10 15 6 0 10 -7
10 -15z"/>
<path d="M3170 5691 c0 -5 -9 -11 -21 -14 -28 -7 -21 -41 9 -45 19 -3 22 1 22
32 0 20 -2 36 -5 36 -3 0 -5 -4 -5 -9z m0 -36 c0 -8 -7 -15 -15 -15 -8 0 -15
7 -15 15 0 8 7 15 15 15 8 0 15 -7 15 -15z"/>
<path d="M3341 5686 c-32 -18 -35 -45 -8 -56 12 -5 17 -9 11 -9 -7 -1 -25 6
-40 14 -16 8 -24 15 -18 15 7 0 14 9 17 21 4 16 2 19 -11 13 -9 -4 -30 -7 -47
-6 -23 1 -26 -1 -15 -8 13 -8 12 -10 -2 -10 -10 0 -18 -7 -18 -15 0 -11 10
-14 40 -13 22 1 43 -2 48 -7 4 -4 -3 -5 -16 -2 -12 3 -20 1 -17 -3 6 -10 73
-7 98 4 18 9 24 56 7 56 -5 0 -10 -9 -10 -20 0 -12 -7 -20 -17 -20 -10 0 -14
4 -8 8 9 7 38 52 33 52 -2 -1 -14 -7 -27 -14z"/>
<path d="M4540 5672 c0 -17 4 -34 10 -37 6 -4 7 6 3 27 -8 44 -13 48 -13 10z"/>
<path d="M4728 5688 c-3 -7 -21 -12 -43 -11 -26 1 -34 -2 -24 -8 11 -7 11 -9
-3 -9 -10 0 -18 -6 -18 -14 0 -11 13 -15 50 -14 l50 0 0 34 c0 35 -5 44 -12
22z m2 -33 c0 -8 -4 -15 -10 -15 -5 0 -10 7 -10 15 0 8 5 15 10 15 6 0 10 -7
10 -15z"/>
<path d="M1866 5683 c-9 -10 -7 -53 3 -53 5 0 7 9 4 20 -3 11 -1 20 5 20 5 0
12 -9 15 -20 3 -11 12 -20 21 -20 14 0 16 5 16 38 0 4 -8 7 -18 7 -9 1 -22 4
-28 8 -6 3 -14 4 -18 0z"/>
<path d="M1997 5665 c-2 -14 1 -28 7 -32 6 -3 8 -3 4 2 -4 4 -3 16 2 26 6 10
6 20 1 23 -5 3 -11 -6 -14 -19z"/>
<path d="M2390 5660 c0 -27 2 -29 38 -27 30 2 37 6 37 22 0 28 -35 33 -42 6
-3 -12 -10 -21 -15 -21 -6 0 -7 11 -4 25 4 14 2 25 -4 25 -5 0 -10 -13 -10
-30z m67 -16 c-3 -3 -12 -4 -19 -1 -8 3 -5 6 6 6 11 1 17 -2 13 -5z"/>
<path d="M3518 5683 c-9 -2 -19 -16 -21 -31 l-4 -27 -2 28 c-1 22 -6 27 -26
27 -20 0 -25 -5 -25 -25 0 -14 5 -25 10 -25 6 0 10 9 10 20 0 11 5 20 10 20 6
0 10 -8 10 -18 0 -23 19 -42 42 -42 23 0 24 30 1 31 -13 0 -14 2 -4 6 11 5 11
7 0 14 -10 6 -10 9 -2 9 7 0 17 -9 23 -20 16 -30 50 -26 50 6 0 24 -3 26 -30
20 -19 -3 -29 -2 -25 4 3 6 5 9 3 9 -2 -1 -11 -3 -20 -6z"/>
<path d="M3893 5676 c4 -10 7 -24 7 -32 0 -8 4 -14 8 -14 13 0 6 54 -8 58 -9
3 -11 -1 -7 -12z"/>
<path d="M1427 5673 c-15 -14 -7 -43 12 -43 20 0 35 25 25 41 -6 11 -28 12
-37 2z m27 -18 c-4 -8 -10 -15 -15 -15 -5 0 -9 7 -9 15 0 8 7 15 15 15 9 0 12
-6 9 -15z"/>
<path d="M1494 5671 c19 -7 19 -8 -2 -13 -29 -8 -28 -30 1 -26 14 2 23 11 25
26 3 17 -1 22 -20 21 -21 0 -21 -1 -4 -8z"/>
<path d="M1581 5673 c0 -6 -4 -20 -7 -30 -5 -14 -4 -15 5 -7 7 7 11 20 8 30
-3 11 -5 14 -6 7z"/>
<path d="M1601 5653 c2 -24 2 -25 6 -5 2 12 9 22 14 22 5 0 9 -10 10 -22 0
-22 1 -22 8 -3 11 25 5 35 -20 35 -14 0 -19 -6 -18 -27z"/>
<path d="M1757 5673 c-15 -14 -7 -43 12 -43 20 0 35 25 25 41 -6 11 -28 12
-37 2z m27 -18 c-4 -8 -10 -15 -15 -15 -5 0 -9 7 -9 15 0 8 7 15 15 15 9 0 12
-6 9 -15z"/>
<path d="M1807 5658 c-4 -12 -4 -24 -1 -27 3 -3 7 5 11 17 7 28 20 28 26 0 4
-20 4 -19 6 5 1 20 -4 27 -18 27 -11 0 -21 -9 -24 -22z"/>
<path d="M1957 5667 c2 -4 -1 -16 -9 -25 -12 -15 -11 -16 4 -4 9 7 18 9 20 5
3 -4 4 -3 2 3 -1 6 2 16 7 21 5 5 1 9 -10 9 -11 0 -17 -4 -14 -9z"/>
<path d="M2280 5655 c0 -18 5 -25 20 -25 15 0 20 7 20 25 0 18 -5 25 -20 25
-15 0 -20 -7 -20 -25z"/>
<path d="M2330 5655 c0 -14 5 -25 10 -25 6 0 10 9 10 20 0 27 18 25 23 -2 4
-20 4 -19 6 5 1 23 -3 27 -24 27 -20 0 -25 -5 -25 -25z"/>
<path d="M2731 5653 c1 -22 2 -23 6 -8 3 11 10 23 17 27 7 5 5 8 -6 8 -13 0
-18 -7 -17 -27z"/>
<path d="M2772 5655 c0 -16 2 -22 5 -12 2 9 2 23 0 30 -3 6 -5 -1 -5 -18z"/>
<path d="M2791 5658 c-1 -22 4 -28 19 -28 15 0 20 6 19 28 -2 23 -2 24 -6 5
-2 -13 -8 -23 -13 -23 -5 0 -11 10 -13 23 -4 19 -4 18 -6 -5z"/>
<path d="M2843 5656 c0 -22 4 -24 48 -24 27 0 49 4 49 9 0 5 -7 6 -15 3 -10
-4 -15 0 -15 11 0 11 5 15 15 11 8 -3 15 -1 15 4 0 16 -40 12 -46 -4 -3 -8
-12 -12 -21 -9 -12 5 -12 7 -1 14 9 6 7 9 -8 9 -16 0 -21 -6 -21 -24z"/>
<path d="M2952 5655 c0 -16 2 -22 5 -12 2 9 2 23 0 30 -3 6 -5 -1 -5 -18z"/>
<path d="M2970 5655 c0 -31 20 -33 21 -2 l0 22 10 -23 c11 -28 44 -26 44 3 0
16 -7 20 -37 22 -34 2 -38 0 -38 -22z m67 -11 c-3 -3 -12 -4 -19 -1 -8 3 -5 6
6 6 11 1 17 -2 13 -5z"/>
<path d="M3080 5655 c0 -18 5 -25 20 -25 15 0 20 7 20 25 0 18 -5 25 -20 25
-15 0 -20 -7 -20 -25z"/>
<path d="M3391 5658 c-1 -22 4 -28 19 -28 15 0 20 6 19 28 -2 23 -2 24 -6 5
-2 -13 -8 -23 -13 -23 -5 0 -11 10 -13 23 -4 19 -4 18 -6 -5z"/>
<path d="M3601 5652 c2 -23 2 -24 6 -4 5 28 19 29 26 1 7 -27 42 -22 42 6 0
16 -7 20 -37 22 -35 2 -38 0 -37 -25z m66 -8 c-3 -3 -12 -4 -19 -1 -8 3 -5 6
6 6 11 1 17 -2 13 -5z"/>
<path d="M3711 5658 c-1 -22 4 -28 19 -28 15 0 20 6 19 28 -2 23 -2 24 -6 5
-2 -13 -8 -23 -13 -23 -5 0 -11 10 -13 23 -4 19 -4 18 -6 -5z"/>
<path d="M3760 5655 c0 -14 5 -25 10 -25 6 0 10 9 10 20 0 27 18 25 23 -2 4
-20 4 -19 6 5 1 23 -3 27 -24 27 -20 0 -25 -5 -25 -25z"/>
<path d="M3820 5655 c0 -18 5 -25 20 -25 15 0 20 7 20 25 0 18 -5 25 -20 25
-15 0 -20 -7 -20 -25z"/>
<path d="M3930 5655 c0 -14 2 -25 4 -25 2 0 6 11 8 25 3 14 1 25 -3 25 -5 0
-9 -11 -9 -25z"/>
<path d="M3960 5655 c0 -18 5 -25 20 -25 15 0 20 7 20 25 0 18 -5 25 -20 25
-15 0 -20 -7 -20 -25z"/>
<path d="M4013 5665 c-2 -8 -2 -18 1 -23 7 -12 96 -13 96 -1 0 4 -7 6 -15 3
-10 -4 -15 0 -15 11 0 11 5 15 15 11 8 -3 15 -1 15 3 0 15 -91 11 -97 -4z m45
-7 c-3 -7 -11 -13 -18 -13 -7 0 -15 6 -17 13 -3 7 4 12 17 12 13 0 20 -5 18
-12z"/>
<path d="M4122 5655 c0 -16 2 -22 5 -12 2 9 2 23 0 30 -3 6 -5 -1 -5 -18z"/>
<path d="M4160 5671 c13 -9 13 -11 -2 -11 -10 0 -18 -7 -18 -15 0 -9 10 -15
26 -15 21 0 25 4 22 22 -2 14 -11 24 -23 26 -17 3 -17 1 -5 -7z"/>
<path d="M4221 5653 c2 -24 2 -25 6 -5 2 12 8 22 13 22 5 0 11 -10 13 -22 l4
-23 2 23 c0 12 5 22 10 22 5 0 12 -10 14 -22 4 -20 4 -19 6 5 1 25 -2 27 -34
27 -32 0 -35 -2 -34 -27z"/>
<path d="M4303 5660 c1 -17 9 -26 25 -28 18 -3 22 1 22 22 0 32 -17 34 -23 4
-4 -23 -4 -23 -15 2 l-12 25 3 -25z"/>
<path d="M4363 5655 c0 -18 5 -25 18 -25 11 0 19 7 19 15 0 8 -6 15 -12 15 -9
0 -8 4 2 10 12 8 11 10 -6 10 -16 0 -21 -6 -21 -25z"/>
<path d="M4412 5655 c0 -16 2 -22 5 -12 2 9 2 23 0 30 -3 6 -5 -1 -5 -18z"/>
<path d="M4434 5665 c-9 -24 3 -32 51 -33 41 0 45 2 45 24 0 19 -5 24 -22 23
-20 -1 -21 -2 -4 -6 17 -4 14 -8 -13 -19 -32 -14 -51 -11 -51 6 0 5 10 11 23
13 l22 4 -23 2 c-12 0 -25 -6 -28 -14z"/>
<path d="M4570 5655 c0 -18 5 -25 20 -25 15 0 20 7 20 25 0 18 -5 25 -20 25
-15 0 -20 -7 -20 -25z"/>
<path d="M2370 5542 c0 -17 4 -34 10 -37 6 -4 7 6 3 27 -8 44 -13 48 -13 10z"/>
<path d="M2500 5535 c0 -19 4 -35 8 -35 4 0 6 16 4 35 -2 19 -6 35 -8 35 -2 0
-4 -16 -4 -35z"/>
<path d="M2600 5530 c0 -22 5 -30 18 -30 13 0 14 2 3 9 -8 5 -11 16 -6 30 4
12 2 21 -4 21 -6 0 -11 -13 -11 -30z"/>
<path d="M2131 5528 c-1 -22 4 -28 19 -28 15 0 20 6 19 28 -2 23 -2 24 -6 5
-2 -13 -8 -23 -13 -23 -5 0 -11 10 -13 23 -4 19 -4 18 -6 -5z"/>
<path d="M2180 5525 c0 -14 5 -25 10 -25 6 0 10 9 10 20 0 27 18 25 23 -2 4
-20 4 -19 6 5 1 23 -3 27 -24 27 -20 0 -25 -5 -25 -25z"/>
<path d="M2240 5525 c0 -18 5 -25 20 -25 15 0 20 7 20 25 0 18 -5 25 -20 25
-15 0 -20 -7 -20 -25z"/>
<path d="M2321 5513 c0 -21 3 -32 6 -25 2 6 11 12 19 12 8 0 14 10 14 25 0 18
-5 25 -20 25 -17 0 -20 -6 -19 -37z m29 12 c0 -8 -4 -15 -10 -15 -5 0 -10 7
-10 15 0 8 5 15 10 15 6 0 10 -7 10 -15z"/>
<path d="M2400 5525 c0 -18 5 -25 20 -25 15 0 20 7 20 25 0 18 -5 25 -20 25
-15 0 -20 -7 -20 -25z"/>
<path d="M2454 5515 c1 -19 4 -35 9 -35 10 0 29 50 23 64 -2 6 -5 2 -6 -9 -1
-18 -2 -19 -14 -3 -11 15 -12 13 -12 -17z"/>
<path d="M2532 5525 c0 -16 2 -22 5 -12 2 9 2 23 0 30 -3 6 -5 -1 -5 -18z"/>
<path d="M2553 5525 c0 -18 5 -25 18 -25 11 0 19 7 19 15 0 8 -6 15 -12 15 -9
0 -8 4 2 10 12 8 11 10 -6 10 -16 0 -21 -6 -21 -25z"/>
<path d="M1426 5418 c-3 -7 -7 -24 -10 -38 -4 -21 -3 -22 7 -9 7 8 20 18 30
22 9 3 17 13 17 22 0 18 -39 21 -44 3z m34 -8 c0 -5 -7 -10 -15 -10 -8 0 -15
5 -15 10 0 6 7 10 15 10 8 0 15 -4 15 -10z"/>
<path d="M1770 5423 c0 -6 -9 -13 -20 -16 -27 -7 -27 -47 -1 -47 14 0 21 9 26
31 4 17 4 33 1 36 -3 4 -6 2 -6 -4z m-6 -38 c-4 -8 -10 -15 -15 -15 -5 0 -9 7
-9 15 0 8 7 15 15 15 9 0 12 -6 9 -15z"/>
<path d="M2132 5398 c-2 -34 1 -38 21 -37 15 1 17 3 5 6 -10 2 -18 17 -21 36
-4 31 -4 31 -5 -5z"/>
<path d="M2530 5420 c0 -5 -7 -10 -15 -10 -9 0 -15 -9 -15 -25 0 -18 5 -25 20
-25 16 0 20 7 20 35 0 19 -2 35 -5 35 -3 0 -5 -4 -5 -10z m0 -35 c0 -8 -4 -15
-10 -15 -5 0 -10 7 -10 15 0 8 5 15 10 15 6 0 10 -7 10 -15z"/>
<path d="M3590 5420 c0 -5 -7 -10 -15 -10 -9 0 -15 -9 -15 -25 0 -18 5 -25 20
-25 16 0 20 7 20 35 0 19 -2 35 -5 35 -3 0 -5 -4 -5 -10z m0 -35 c0 -8 -4 -15
-10 -15 -5 0 -10 7 -10 15 0 8 5 15 10 15 6 0 10 -7 10 -15z"/>
<path d="M4160 5395 c0 -19 4 -35 8 -35 4 0 6 16 4 35 -2 19 -6 35 -8 35 -2 0
-4 -16 -4 -35z"/>
<path d="M4696 5422 c-3 -5 -1 -22 4 -38 8 -29 8 -29 9 9 1 36 -3 45 -13 29z"/>
<path d="M4751 5398 c-1 -35 0 -36 32 -35 25 2 32 6 32 22 0 29 -35 32 -43 3
-6 -21 -7 -20 -13 12 l-6 35 -2 -37z m59 -13 c0 -8 -7 -15 -15 -15 -8 0 -15 7
-15 15 0 8 7 15 15 15 8 0 15 -7 15 -15z"/>
<path d="M1816 5413 c-10 -10 -7 -53 4 -53 5 0 7 7 3 16 -3 9 0 20 7 24 7 4 8
10 2 13 -5 4 -12 4 -16 0z"/>
<path d="M2244 5412 c-6 -4 -13 -15 -17 -24 -3 -10 -11 -18 -16 -18 -5 0 -11
8 -14 18 -3 13 -4 12 -3 -3 2 -30 43 -33 49 -3 l4 23 2 -22 c0 -13 5 -23 9
-23 8 0 9 46 1 54 -3 3 -9 2 -15 -2z"/>
<path d="M2390 5396 c0 -35 15 -40 16 -5 1 16 -3 29 -7 29 -5 0 -9 -11 -9 -24z"/>
<path d="M3148 5413 c-26 -7 -25 -73 0 -73 26 0 42 20 41 50 l-1 25 -7 -26
c-5 -21 -10 -25 -26 -18 -17 6 -17 8 -2 8 10 1 17 9 17 21 0 11 -1 19 -2 19
-2 -1 -11 -3 -20 -6z m19 -59 c-3 -3 -12 -4 -19 -1 -8 3 -5 6 6 6 11 1 17 -2
13 -5z"/>
<path d="M3258 5415 c-7 -7 3 -55 11 -55 8 0 7 47 -1 55 -2 3 -7 3 -10 0z"/>
<path d="M3374 5404 c3 -9 6 -22 6 -30 0 -8 4 -14 8 -14 5 0 7 14 4 30 -2 17
-9 30 -14 30 -6 0 -7 -7 -4 -16z"/>
<path d="M1476 5387 c-3 -12 -3 -23 0 -26 3 -3 7 5 11 17 7 27 23 29 23 2 0
-13 7 -20 20 -20 14 0 20 7 20 24 0 21 -5 24 -34 24 -26 0 -35 -5 -40 -21z"/>
<path d="M1564 5395 c-3 -8 -3 -19 1 -25 8 -13 35 -13 35 0 0 5 -7 7 -15 4 -9
-4 -15 0 -15 9 0 9 10 18 23 20 l22 4 -23 2 c-12 0 -25 -6 -28 -14z"/>
<path d="M1627 5403 c-15 -15 -7 -43 13 -43 11 0 20 6 20 13 0 9 2 9 9 -1 6
-10 10 -9 14 7 3 12 10 21 17 21 7 0 9 -8 5 -22 -5 -18 -4 -20 4 -8 17 23 13
40 -9 40 -11 0 -20 -5 -20 -12 0 -9 -3 -9 -12 0 -13 13 -31 16 -41 5z m27 -18
c-4 -8 -10 -15 -15 -15 -5 0 -9 7 -9 15 0 8 7 15 15 15 9 0 12 -6 9 -15z"/>
<path d="M1791 5403 c0 -6 -4 -20 -7 -30 -5 -14 -4 -15 5 -7 7 7 11 20 8 30
-3 11 -5 14 -6 7z"/>
<path d="M1846 5395 c-3 -9 -6 -22 -5 -28 0 -7 5 -1 10 12 5 13 8 26 5 28 -2
2 -6 -3 -10 -12z"/>
<path d="M1866 5393 c-4 -9 -2 -21 3 -26 15 -15 41 0 41 23 0 25 -35 28 -44 3z
m34 -8 c0 -8 -4 -15 -10 -15 -5 0 -10 7 -10 15 0 8 5 15 10 15 6 0 10 -7 10
-15z"/>
<path d="M1926 5394 c-3 -9 -6 -21 -5 -27 0 -7 4 -2 9 11 5 12 14 22 20 22 7
0 9 -9 5 -22 -5 -18 -4 -20 4 -8 6 8 11 21 11 28 0 18 -37 15 -44 -4z"/>
<path d="M1980 5400 c0 -6 8 -14 17 -17 15 -6 15 -7 -3 -14 -16 -6 -16 -8 -2
-8 21 -1 32 15 17 25 -8 4 -7 9 2 15 10 6 8 9 -8 9 -13 0 -23 -5 -23 -10z"/>
<path d="M2282 5388 c5 -34 38 -37 38 -4 0 20 -5 26 -21 26 -15 0 -20 -5 -17
-22z"/>
<path d="M2331 5383 c2 -23 2 -24 6 -5 5 27 30 29 36 2 4 -17 4 -16 3 2 -1 16
-8 24 -23 26 -20 3 -23 -1 -22 -25z"/>
<path d="M2424 5395 c-4 -9 -2 -21 4 -27 15 -15 41 -2 38 19 -4 23 -34 29 -42
8z m33 -1 c-3 -3 -12 -4 -19 -1 -8 3 -5 6 6 6 11 1 17 -2 13 -5z m0 -20 c-3
-3 -12 -4 -19 -1 -8 3 -5 6 6 6 11 1 17 -2 13 -5z"/>
<path d="M2558 5398 c-8 -21 2 -38 23 -38 14 0 19 7 19 25 0 18 -5 25 -19 25
-10 0 -21 -6 -23 -12z"/>
<path d="M2611 5400 c0 -8 3 -21 8 -29 7 -11 11 -10 20 7 14 27 14 43 -1 17
-11 -19 -11 -19 -19 0 -5 13 -8 15 -8 5z"/>
<path d="M2658 5398 c-8 -21 2 -38 23 -38 14 0 19 7 19 25 0 18 -5 25 -19 25
-10 0 -21 -6 -23 -12z"/>
<path d="M2732 5388 c5 -34 38 -37 38 -4 0 20 -5 26 -21 26 -15 0 -20 -5 -17
-22z"/>
<path d="M2790 5400 c0 -6 8 -14 17 -17 15 -6 14 -7 -3 -13 -12 -5 -4 -7 24
-7 29 0 42 4 42 13 0 8 -6 14 -12 14 -9 0 -8 4 2 10 12 8 10 10 -9 10 -17 0
-22 -4 -17 -16 5 -12 2 -15 -10 -10 -8 3 -19 6 -22 6 -4 0 0 5 8 10 13 8 12
10 -2 10 -10 0 -18 -5 -18 -10z"/>
<path d="M2888 5398 c-8 -21 2 -38 23 -38 14 0 19 7 19 25 0 18 -5 25 -19 25
-10 0 -21 -6 -23 -12z"/>
<path d="M2940 5385 c0 -14 2 -25 4 -25 2 0 6 11 8 25 3 14 1 25 -3 25 -5 0
-9 -11 -9 -25z"/>
<path d="M2974 5395 c-4 -9 -2 -21 4 -27 15 -15 41 -2 38 19 -4 23 -34 29 -42
8z m33 -1 c-3 -3 -12 -4 -19 -1 -8 3 -5 6 6 6 11 1 17 -2 13 -5z m0 -20 c-3
-3 -12 -4 -19 -1 -8 3 -5 6 6 6 11 1 17 -2 13 -5z"/>
<path d="M3050 5385 c0 -14 2 -25 4 -25 2 0 6 11 8 25 3 14 1 25 -3 25 -5 0
-9 -11 -9 -25z"/>
<path d="M3082 5388 c5 -34 38 -37 38 -4 0 20 -5 26 -21 26 -15 0 -20 -5 -17
-22z"/>
<path d="M3210 5400 c0 -6 8 -14 17 -17 15 -6 15 -7 -3 -14 -16 -6 -16 -8 -2
-8 23 -1 33 18 13 25 -13 6 -14 8 -3 15 10 7 9 9 -4 9 -10 0 -18 -5 -18 -10z"/>
<path d="M3290 5385 c0 -14 2 -25 4 -25 2 0 6 11 8 25 3 14 1 25 -3 25 -5 0
-9 -11 -9 -25z"/>
<path d="M3335 5400 c17 -7 17 -9 3 -9 -25 -1 -23 -31 2 -31 15 0 20 7 20 25
0 19 -5 25 -22 24 -22 0 -22 -1 -3 -9z"/>
<path d="M3408 5398 c-8 -21 2 -38 23 -38 14 0 19 7 19 25 0 18 -5 25 -19 25
-10 0 -21 -6 -23 -12z m32 -13 c0 -8 -4 -15 -10 -15 -5 0 -10 7 -10 15 0 8 5
15 10 15 6 0 10 -7 10 -15z"/>
<path d="M3484 5395 c-4 -9 -2 -21 4 -27 15 -15 41 -2 38 19 -4 23 -34 29 -42
8z m33 -1 c-3 -3 -12 -4 -19 -1 -8 3 -5 6 6 6 11 1 17 -2 13 -5z m0 -20 c-3
-3 -12 -4 -19 -1 -8 3 -5 6 6 6 11 1 17 -2 13 -5z"/>
<path d="M3618 5398 c-8 -21 2 -38 23 -38 14 0 19 7 19 25 0 18 -5 25 -19 25
-10 0 -21 -6 -23 -12z"/>
<path d="M3671 5400 c0 -8 3 -21 8 -29 7 -11 11 -10 20 7 14 27 14 43 -1 17
-11 -19 -11 -19 -19 0 -5 13 -8 15 -8 5z"/>
<path d="M3718 5398 c-8 -21 2 -38 23 -38 14 0 19 7 19 25 0 18 -5 25 -19 25
-10 0 -21 -6 -23 -12z"/>
<path d="M3805 5400 c17 -7 17 -9 3 -9 -25 -1 -23 -31 2 -31 15 0 20 7 20 25
0 19 -5 25 -22 24 -22 0 -22 -1 -3 -9z"/>
<path d="M3847 5392 c8 -32 23 -38 30 -11 l6 23 9 -23 c10 -28 43 -24 43 4 0
15 -7 20 -28 21 -16 1 -31 -5 -34 -13 -4 -11 -8 -10 -19 4 -12 17 -13 16 -7
-5z m80 2 c-3 -3 -12 -4 -19 -1 -8 3 -5 6 6 6 11 1 17 -2 13 -5z m0 -20 c-3
-3 -12 -4 -19 -1 -8 3 -5 6 6 6 11 1 17 -2 13 -5z"/>
<path d="M3950 5385 c0 -14 2 -25 4 -25 2 0 6 11 8 25 3 14 1 25 -3 25 -5 0
-9 -11 -9 -25z"/>
<path d="M3982 5388 c5 -34 38 -37 38 -4 0 20 -5 26 -21 26 -15 0 -20 -5 -17
-22z"/>
<path d="M4054 5388 c3 -26 36 -38 36 -14 0 9 -6 16 -12 16 -9 0 -8 4 2 10 12
8 11 10 -7 10 -18 0 -22 -5 -19 -22z"/>
<path d="M4111 5388 c-1 -22 4 -28 19 -28 15 0 20 6 19 28 -2 23 -2 24 -6 5
-2 -13 -8 -23 -13 -23 -5 0 -11 10 -13 23 -4 19 -4 18 -6 -5z"/>
<path d="M4210 5373 c0 -21 4 -33 8 -27 4 6 15 13 25 17 25 9 17 41 -11 45
-19 3 -22 -1 -22 -35z m32 12 c0 -5 -5 -11 -11 -13 -6 -2 -11 4 -11 13 0 9 5
15 11 13 6 -2 11 -8 11 -13z"/>
<path d="M4270 5385 c0 -14 2 -25 4 -25 2 0 6 11 8 25 3 14 1 25 -3 25 -5 0
-9 -11 -9 -25z"/>
<path d="M4302 5388 c4 -27 33 -36 42 -13 8 22 -1 35 -25 35 -15 0 -20 -6 -17
-22z m30 -3 c0 -5 -5 -11 -11 -13 -6 -2 -11 4 -11 13 0 9 5 15 11 13 6 -2 11
-8 11 -13z"/>
<path d="M4361 5373 c0 -21 3 -32 6 -25 2 6 11 12 19 12 8 0 14 10 14 25 0 18
-5 25 -20 25 -17 0 -20 -6 -19 -37z m29 12 c0 -8 -4 -15 -10 -15 -5 0 -10 7
-10 15 0 8 5 15 10 15 6 0 10 -7 10 -15z"/>
<path d="M4411 5383 c1 -22 2 -23 6 -8 3 11 10 23 17 27 7 5 5 8 -6 8 -13 0
-18 -7 -17 -27z"/>
<path d="M4452 5385 c0 -16 2 -22 5 -12 2 9 2 23 0 30 -3 6 -5 -1 -5 -18z"/>
<path d="M4472 5388 c4 -27 33 -36 42 -13 8 22 -1 35 -25 35 -15 0 -20 -6 -17
-22z m30 -3 c0 -5 -5 -11 -11 -13 -6 -2 -11 4 -11 13 0 9 5 15 11 13 6 -2 11
-8 11 -13z"/>
<path d="M4551 5373 c0 -21 3 -32 6 -25 2 6 11 12 19 12 8 0 14 10 14 25 0 18
-5 25 -20 25 -17 0 -20 -6 -19 -37z m29 12 c0 -8 -4 -15 -10 -15 -5 0 -10 7
-10 15 0 8 5 15 10 15 6 0 10 -7 10 -15z"/>
<path d="M4601 5383 c1 -22 2 -23 6 -8 3 11 10 23 17 27 7 5 5 8 -6 8 -13 0
-18 -7 -17 -27z"/>
<path d="M4638 5398 c-8 -21 2 -38 23 -38 14 0 19 7 19 25 0 18 -5 25 -19 25
-10 0 -21 -6 -23 -12z m32 -13 c0 -8 -4 -15 -10 -15 -5 0 -10 7 -10 15 0 8 5
15 10 15 6 0 10 -7 10 -15z"/>
<path d="M4720 5385 c0 -14 5 -25 10 -25 6 0 10 11 10 25 0 14 -4 25 -10 25
-5 0 -10 -11 -10 -25z"/>
<path d="M2180 5271 c0 -17 4 -32 8 -35 4 -2 6 11 4 30 -5 42 -12 45 -12 5z"/>
<path d="M2731 5268 c-1 -37 0 -38 34 -38 35 0 40 5 29 34 -5 13 -9 12 -27 -5
l-22 -20 -6 33 -6 33 -2 -37z"/>
<path d="M2862 5268 c-2 -28 2 -38 13 -38 10 0 15 9 14 28 l-1 27 -8 -25 c-7
-24 -7 -23 -12 10 l-5 35 -1 -37z"/>
<path d="M2958 5285 c-7 -7 3 -55 11 -55 8 0 7 47 -1 55 -2 3 -7 3 -10 0z"/>
<path d="M2145 5270 c17 -7 17 -9 3 -9 -25 -1 -23 -31 2 -31 15 0 20 7 20 25
0 19 -5 25 -22 24 -22 0 -22 -1 -3 -9z"/>
<path d="M2211 5253 c2 -24 2 -25 6 -5 2 12 8 22 13 22 5 0 11 -10 13 -22 l4
-23 2 23 c1 28 21 29 28 1 4 -16 8 -17 14 -7 7 10 9 10 9 1 0 -7 9 -13 20 -13
15 0 20 7 20 25 0 18 -5 25 -20 25 -11 0 -20 -5 -20 -12 0 -9 -3 -9 -12 0 -7
7 -27 12 -45 12 -30 0 -33 -3 -32 -27z"/>
<path d="M2351 5253 c2 -24 2 -25 6 -5 2 12 8 22 13 22 5 0 11 -10 13 -22 4
-20 4 -19 6 5 1 21 -4 27 -19 27 -15 0 -20 -6 -19 -27z"/>
<path d="M2408 5268 c-8 -21 2 -38 23 -38 14 0 19 7 19 25 0 18 -5 25 -19 25
-10 0 -21 -6 -23 -12z m32 -13 c0 -8 -4 -15 -10 -15 -5 0 -10 7 -10 15 0 8 5
15 10 15 6 0 10 -7 10 -15z"/>
<path d="M2484 5255 c1 -13 9 -21 24 -23 18 -3 22 1 21 25 0 27 -1 27 -9 6
-11 -27 -27 -30 -33 -5 -3 13 -4 12 -3 -3z"/>
<path d="M2541 5253 c2 -24 2 -25 6 -5 2 12 8 22 13 22 5 0 11 -10 13 -22 4
-20 4 -19 6 5 1 21 -4 27 -19 27 -15 0 -20 -6 -19 -27z"/>
<path d="M2608 5260 c-24 -23 -23 -30 7 -30 25 0 32 15 17 36 -5 8 -12 6 -24
-6z"/>
<path d="M2670 5243 c0 -21 4 -33 8 -27 4 6 15 13 25 17 25 9 17 41 -11 45
-19 3 -22 -1 -22 -35z m32 12 c0 -5 -5 -11 -11 -13 -6 -2 -11 4 -11 13 0 9 5
15 11 13 6 -2 11 -8 11 -13z"/>
<path d="M2810 5257 c6 -16 7 -33 4 -39 -4 -6 -2 -8 3 -5 6 4 16 22 22 39 9
28 9 30 -2 16 -12 -15 -14 -15 -25 0 -9 14 -10 11 -2 -11z"/>
<path d="M2904 5258 c3 -26 36 -38 36 -14 0 9 -6 16 -12 16 -9 0 -8 4 2 10 12
8 11 10 -7 10 -18 0 -22 -5 -19 -22z"/>
<path d="M1010 5146 c0 -8 7 -16 15 -20 23 -8 18 -29 -5 -23 -11 3 -18 1 -14
-4 8 -14 41 -11 47 5 3 8 -4 22 -16 31 l-22 16 23 -5 c12 -2 22 0 22 5 0 5
-11 9 -25 9 -15 0 -25 -6 -25 -14z"/>
<path d="M1410 5148 c0 -7 -3 -23 -6 -35 -6 -20 -3 -23 22 -22 29 1 29 1 4 9
l-25 7 25 11 c18 8 20 11 8 11 -26 1 -22 19 5 24 19 4 18 4 -5 6 -16 0 -28 -4
-28 -11z"/>
<path d="M1560 5153 c0 -6 -9 -13 -20 -16 -27 -7 -27 -47 -1 -47 14 0 21 9 26
31 4 17 4 33 1 36 -3 4 -6 2 -6 -4z m-6 -38 c-4 -8 -10 -15 -15 -15 -5 0 -9 7
-9 15 0 8 7 15 15 15 9 0 12 -6 9 -15z"/>
<path d="M1604 5146 c-10 -26 1 -51 24 -54 12 -2 22 1 22 6 0 6 -9 8 -21 5
-17 -5 -20 -2 -17 18 2 18 9 24 26 23 12 0 22 3 22 8 0 14 -50 9 -56 -6z"/>
<path d="M1820 5153 c0 -6 -9 -13 -20 -16 -27 -7 -27 -47 -1 -47 14 0 21 9 26
31 4 17 4 33 1 36 -3 4 -6 2 -6 -4z m-6 -38 c-4 -8 -10 -15 -15 -15 -5 0 -9 7
-9 15 0 8 7 15 15 15 9 0 12 -6 9 -15z"/>
<path d="M2132 5128 c-2 -35 0 -38 26 -37 22 1 23 2 5 6 -16 3 -23 13 -26 36
-4 31 -4 31 -5 -5z"/>
<path d="M2170 5150 c0 -5 4 -10 9 -10 5 0 11 -10 13 -22 4 -33 45 -37 51 -6
l4 23 2 -22 c0 -13 5 -23 9 -23 4 0 7 12 6 28 0 15 -4 26 -7 25 -4 -2 -13 -3
-21 -3 -8 0 -16 -10 -19 -22 -3 -21 -5 -20 -16 10 -12 30 -31 44 -31 22z"/>
<path d="M3008 5148 c-3 -7 -21 -12 -43 -11 -26 1 -34 -2 -24 -8 11 -7 11 -9
-3 -9 -10 0 -18 -6 -18 -14 0 -11 13 -15 50 -14 l50 0 0 34 c0 35 -5 44 -12
22z m2 -33 c0 -8 -4 -15 -10 -15 -5 0 -10 7 -10 15 0 8 5 15 10 15 6 0 10 -7
10 -15z"/>
<path d="M4240 5125 c0 -19 4 -35 8 -35 4 0 6 16 4 35 -2 19 -6 35 -8 35 -2 0
-4 -16 -4 -35z"/>
<path d="M4402 5128 c-2 -31 2 -38 16 -38 15 0 17 6 13 38 l-5 37 -6 -35 -7
-35 -5 35 -5 35 -1 -37z"/>
<path d="M4450 5149 c0 -5 5 -7 10 -4 6 3 10 8 10 11 0 2 -4 4 -10 4 -5 0 -10
-5 -10 -11z"/>
<path d="M1867 5125 c-2 -14 1 -28 7 -32 6 -3 8 -3 4 2 -4 4 -3 16 2 26 6 10
6 20 1 23 -5 3 -11 -6 -14 -19z"/>
<path d="M2390 5120 c0 -27 2 -29 38 -27 30 2 37 6 37 22 0 28 -35 33 -42 6
-3 -12 -10 -21 -15 -21 -6 0 -7 11 -4 25 4 14 2 25 -4 25 -5 0 -10 -13 -10
-30z m67 -16 c-3 -3 -12 -4 -19 -1 -8 3 -5 6 6 6 11 1 17 -2 13 -5z"/>
<path d="M2803 5143 c-15 -6 -18 -53 -3 -53 6 0 11 10 11 23 l2 22 4 -22 c6
-32 19 -29 17 4 -1 28 -10 35 -31 26z"/>
<path d="M3590 5120 c0 -25 4 -30 24 -30 17 0 25 7 28 25 4 17 1 25 -8 25 -8
0 -14 -9 -14 -20 0 -11 -5 -20 -11 -20 -7 0 -9 10 -5 25 4 14 2 25 -4 25 -5 0
-10 -13 -10 -30z"/>
<path d="M4553 5136 c4 -10 7 -24 7 -32 0 -8 4 -14 8 -14 13 0 6 54 -8 58 -9
3 -11 -1 -7 -12z"/>
<path d="M1068 5123 c-7 -26 -2 -33 24 -33 13 0 18 7 17 28 -2 23 -2 24 -6 5
-2 -13 -8 -23 -13 -23 -5 0 -10 10 -12 23 l-3 22 -7 -22z"/>
<path d="M1127 5133 c-15 -15 -7 -43 13 -43 11 0 20 4 20 10 0 5 -7 7 -15 4
-9 -4 -15 0 -15 9 0 9 8 18 18 20 14 4 14 5 1 6 -9 0 -19 -2 -22 -6z"/>
<path d="M1176 5124 c-3 -9 -4 -20 0 -25 7 -12 31 -12 39 1 3 6 -1 7 -9 4 -10
-4 -16 -1 -16 9 0 9 8 18 18 20 13 4 12 5 -4 6 -12 0 -25 -6 -28 -15z"/>
<path d="M1237 5133 c-15 -15 -7 -43 13 -43 15 0 20 7 20 25 0 24 -18 34 -33
18z"/>
<path d="M1290 5133 c0 -5 6 -15 13 -22 10 -11 9 -13 -5 -8 -10 4 -18 2 -18
-3 0 -6 9 -10 20 -10 24 0 26 16 5 36 -8 9 -15 12 -15 7z"/>
<path d="M1340 5133 c0 -5 6 -15 13 -22 10 -11 9 -13 -5 -8 -10 4 -18 2 -18
-3 0 -6 9 -10 20 -10 24 0 26 16 5 36 -8 9 -15 12 -15 7z"/>
<path d="M1466 5124 c-3 -9 -6 -21 -5 -27 0 -7 4 -2 9 11 5 12 14 22 20 22 7
0 9 -9 5 -22 -5 -18 -4 -20 4 -8 6 8 11 21 11 28 0 18 -37 15 -44 -4z"/>
<path d="M1677 5133 c-15 -14 -7 -43 12 -43 20 0 35 25 25 41 -6 11 -28 12
-37 2z m27 -18 c-4 -8 -10 -15 -15 -15 -5 0 -9 7 -9 15 0 8 7 15 15 15 9 0 12
-6 9 -15z"/>
<path d="M1727 5118 c-4 -12 -4 -24 -1 -27 3 -3 7 5 11 17 7 28 20 28 26 0 4
-20 4 -19 6 5 1 20 -4 27 -18 27 -11 0 -21 -9 -24 -22z"/>
<path d="M1840 5115 c0 -14 2 -25 4 -25 2 0 6 11 8 25 3 14 1 25 -3 25 -5 0
-9 -11 -9 -25z"/>
<path d="M1896 5125 c-3 -9 -6 -22 -5 -28 0 -7 5 -1 10 12 5 13 8 26 5 28 -2
2 -6 -3 -10 -12z"/>
<path d="M1916 5123 c-4 -9 -2 -21 3 -26 15 -15 41 0 41 23 0 25 -35 28 -44 3z
m34 -8 c0 -8 -4 -15 -10 -15 -5 0 -10 7 -10 15 0 8 5 15 10 15 6 0 10 -7 10
-15z"/>
<path d="M1976 5124 c-3 -9 -6 -21 -5 -27 0 -7 4 -2 9 11 5 12 14 22 20 22 7
0 9 -9 5 -22 -5 -18 -4 -20 4 -8 6 8 11 21 11 28 0 18 -37 15 -44 -4z"/>
<path d="M2280 5115 c0 -18 5 -25 20 -25 15 0 20 7 20 25 0 18 -5 25 -20 25
-15 0 -20 -7 -20 -25z"/>
<path d="M2330 5115 c0 -14 5 -25 10 -25 6 0 10 9 10 20 0 27 18 25 23 -2 4
-20 4 -19 6 5 1 23 -3 27 -24 27 -20 0 -25 -5 -25 -25z"/>
<path d="M2500 5115 c0 -18 5 -25 20 -25 15 0 20 7 20 25 0 18 -5 25 -20 25
-15 0 -20 -7 -20 -25z"/>
<path d="M2570 5115 c0 -14 4 -25 9 -25 5 0 11 11 13 25 4 17 1 25 -8 25 -8 0
-14 -11 -14 -25z"/>
<path d="M2612 5115 c0 -16 2 -22 5 -12 2 9 2 23 0 30 -3 6 -5 -1 -5 -18z"/>
<path d="M2631 5118 c-1 -22 4 -28 19 -28 15 0 20 6 19 28 -2 23 -2 24 -6 5
-2 -13 -8 -23 -13 -23 -5 0 -11 10 -13 23 -4 19 -4 18 -6 -5z"/>
<path d="M2693 5127 c2 -6 10 -12 18 -15 11 -3 11 -2 -1 7 -13 9 -12 11 3 11
11 0 17 -5 14 -12 -2 -7 -13 -13 -25 -12 -12 0 -19 -3 -16 -7 6 -10 94 -9 94
2 0 4 -7 6 -15 3 -10 -4 -15 0 -15 11 0 11 5 15 15 11 8 -3 15 -1 15 3 0 5
-20 9 -46 9 -28 0 -44 -4 -41 -11z"/>
<path d="M2844 5125 c-8 -20 4 -35 27 -35 14 0 19 7 19 25 0 18 -5 25 -20 25
-11 0 -23 -7 -26 -15z m36 -10 c0 -8 -4 -15 -10 -15 -5 0 -10 7 -10 15 0 8 5
15 10 15 6 0 10 -7 10 -15z"/>
<path d="M3062 5115 c0 -16 2 -22 5 -12 2 9 2 23 0 30 -3 6 -5 -1 -5 -18z"/>
<path d="M3081 5113 c2 -24 2 -25 6 -5 2 12 8 22 13 22 5 0 11 -10 13 -22 4
-20 4 -19 6 5 1 21 -4 27 -19 27 -15 0 -20 -6 -19 -27z"/>
<path d="M3143 5127 c2 -6 10 -12 18 -15 11 -3 11 -2 -1 7 -13 9 -12 11 3 11
11 0 17 -5 14 -12 -2 -7 -13 -13 -25 -12 -12 0 -19 -3 -16 -7 2 -4 24 -7 49
-7 40 0 45 2 45 23 0 21 -4 23 -46 23 -28 0 -44 -4 -41 -11z"/>
<path d="M3241 5113 c2 -24 2 -25 6 -5 5 27 23 29 23 2 0 -11 5 -20 10 -20 6
0 10 11 10 25 0 20 -5 25 -25 25 -21 0 -25 -4 -24 -27z"/>
<path d="M3300 5115 c0 -14 2 -25 4 -25 2 0 6 11 8 25 3 14 1 25 -3 25 -5 0
-9 -11 -9 -25z"/>
<path d="M3330 5115 c0 -18 5 -25 20 -25 15 0 20 7 20 25 0 18 -5 25 -20 25
-15 0 -20 -7 -20 -25z"/>
<path d="M3403 5120 c1 -17 9 -26 25 -28 18 -3 22 1 22 22 0 32 -17 34 -23 4
-4 -23 -4 -23 -15 2 l-12 25 3 -25z"/>
<path d="M3461 5113 c2 -24 2 -25 6 -5 2 12 8 22 13 22 5 0 11 -10 13 -22 4
-20 4 -19 6 5 1 21 -4 27 -19 27 -15 0 -20 -6 -19 -27z"/>
<path d="M3534 5131 c19 -7 19 -8 -3 -14 -27 -7 -19 -27 10 -27 14 0 19 7 19
25 0 19 -5 25 -22 24 -21 0 -22 -1 -4 -8z"/>
<path d="M3674 5131 c19 -7 19 -8 -3 -14 -27 -7 -19 -27 10 -27 14 0 19 7 19
25 0 19 -5 25 -22 24 -21 0 -22 -1 -4 -8z"/>
<path d="M3710 5115 c0 -18 5 -25 20 -25 11 0 20 4 20 10 0 5 -7 7 -15 4 -9
-4 -15 0 -15 9 0 9 8 18 18 20 13 4 11 5 -5 6 -18 1 -23 -4 -23 -24z"/>
<path d="M3764 5125 c-11 -27 25 -50 40 -26 3 5 -2 8 -11 7 -25 -2 -27 22 -1
27 l23 4 -23 2 c-12 0 -25 -6 -28 -14z"/>
<path d="M3822 5115 c0 -16 2 -22 5 -12 2 9 2 23 0 30 -3 6 -5 -1 -5 -18z"/>
<path d="M3840 5115 c0 -18 5 -25 20 -25 15 0 20 7 20 25 0 18 -5 25 -20 25
-15 0 -20 -7 -20 -25z"/>
<path d="M3921 5113 c2 -24 2 -25 6 -5 2 12 8 22 13 22 5 0 11 -10 13 -22 l4
-23 2 23 c0 12 5 22 10 22 5 0 12 -10 14 -22 4 -20 4 -19 6 5 1 25 -2 27 -34
27 -32 0 -35 -2 -34 -27z"/>
<path d="M4003 5120 c1 -17 9 -26 25 -28 18 -3 22 1 22 22 0 32 -17 34 -23 4
-4 -23 -4 -23 -15 2 l-12 25 3 -25z"/>
<path d="M4063 5115 c0 -18 5 -25 18 -25 11 0 19 7 19 15 0 8 -6 15 -12 15 -9
0 -8 4 2 10 12 8 11 10 -6 10 -16 0 -21 -6 -21 -25z"/>
<path d="M4112 5115 c0 -16 2 -22 5 -12 2 9 2 23 0 30 -3 6 -5 -1 -5 -18z"/>
<path d="M4134 5125 c-9 -24 3 -32 51 -33 41 0 45 2 45 24 0 19 -5 24 -22 23
-20 -1 -21 -2 -4 -6 17 -4 14 -8 -13 -19 -32 -14 -51 -11 -51 6 0 5 10 11 23
13 l22 4 -23 2 c-12 0 -25 -6 -28 -14z"/>
<path d="M4264 5125 c-8 -20 4 -35 27 -35 14 0 19 7 19 25 0 18 -5 25 -20 25
-11 0 -23 -7 -26 -15z"/>
<path d="M4360 5131 c13 -9 13 -11 -2 -11 -10 0 -18 -7 -18 -15 0 -9 10 -15
26 -15 21 0 25 4 22 22 -2 14 -11 24 -23 26 -17 3 -17 1 -5 -7z"/>
<path d="M4482 5115 c0 -16 2 -22 5 -12 2 9 2 23 0 30 -3 6 -5 -1 -5 -18z"/>
<path d="M4501 5113 c2 -24 2 -25 6 -5 2 12 8 22 13 22 5 0 11 -10 13 -22 4
-20 4 -19 6 5 1 21 -4 27 -19 27 -15 0 -20 -6 -19 -27z"/>
<path d="M4584 5125 c-8 -20 4 -35 27 -35 14 0 19 7 19 25 0 18 -5 25 -20 25
-11 0 -23 -7 -26 -15z"/>
<path d="M4641 5113 c1 -22 2 -23 6 -8 3 11 10 23 17 27 7 5 5 8 -6 8 -13 0
-18 -7 -17 -27z"/>
<path d="M4681 5113 c2 -24 2 -25 6 -5 2 12 8 22 13 22 5 0 11 -10 13 -22 4
-20 4 -19 6 5 1 21 -4 27 -19 27 -15 0 -20 -6 -19 -27z"/>
<path d="M4730 5115 c0 -22 4 -26 23 -23 14 2 22 10 22 23 0 13 -8 21 -22 23
-19 3 -23 -1 -23 -23z m30 0 c0 -8 -4 -15 -10 -15 -5 0 -10 7 -10 15 0 8 5 15
10 15 6 0 10 -7 10 -15z"/>
<path d="M2160 5010 c0 -5 -7 -10 -15 -10 -9 0 -15 -9 -15 -24 0 -23 4 -25 50
-24 47 0 50 2 50 25 0 22 -4 25 -25 21 -17 -4 -25 -1 -25 8 0 8 -4 14 -10 14
-5 0 -10 -4 -10 -10z m0 -35 c0 -8 -4 -15 -10 -15 -5 0 -10 7 -10 15 0 8 5 15
10 15 6 0 10 -7 10 -15z"/>
<path d="M2241 4988 c-1 -32 2 -38 19 -38 17 0 19 5 13 33 -8 44 -13 46 -14 6
l-2 -34 -7 35 -7 35 -2 -37z"/>
<path d="M2420 4992 c0 -17 4 -34 10 -37 6 -4 7 6 3 27 -8 44 -13 48 -13 10z"/>
<path d="M2550 4992 c0 -17 4 -34 10 -37 6 -4 7 6 3 27 -8 44 -13 48 -13 10z"/>
<path d="M2653 4996 c4 -10 7 -24 7 -32 0 -8 4 -14 8 -14 13 0 6 54 -8 58 -9
3 -11 -1 -7 -12z"/>
<path d="M2310 4991 c13 -9 13 -11 -2 -11 -10 0 -18 -7 -18 -15 0 -9 10 -15
26 -15 21 0 25 4 22 22 -2 14 -11 24 -23 26 -17 3 -17 1 -5 -7z"/>
<path d="M2371 4963 c0 -21 3 -32 6 -25 2 6 11 12 19 12 8 0 14 10 14 25 0 18
-5 25 -20 25 -17 0 -20 -6 -19 -37z m29 12 c0 -8 -4 -15 -10 -15 -5 0 -10 7
-10 15 0 8 5 15 10 15 6 0 10 -7 10 -15z"/>
<path d="M2450 4975 c0 -18 5 -25 20 -25 15 0 20 7 20 25 0 18 -5 25 -20 25
-15 0 -20 -7 -20 -25z"/>
<path d="M2504 4965 c1 -19 4 -35 9 -35 10 0 29 50 23 64 -2 6 -5 2 -6 -9 -1
-18 -2 -19 -14 -3 -11 15 -12 13 -12 -17z"/>
<path d="M2582 4975 c0 -16 2 -22 5 -12 2 9 2 23 0 30 -3 6 -5 -1 -5 -18z"/>
<path d="M2603 4975 c0 -18 5 -25 18 -25 11 0 19 7 19 15 0 8 -6 15 -12 15 -9
0 -8 4 2 10 12 8 11 10 -6 10 -16 0 -21 -6 -21 -25z"/>
<path d="M1120 4868 c0 -7 -3 -24 -6 -38 -6 -22 -5 -23 7 -9 8 9 21 19 29 22
12 4 11 6 -2 6 -26 1 -22 19 5 24 19 4 18 4 -5 6 -16 0 -28 -4 -28 -11z"/>
<path d="M1248 4850 c-3 -17 -1 -33 3 -35 4 -3 9 11 11 30 5 43 -8 47 -14 5z"/>
<path d="M1370 4872 c0 -7 -9 -12 -19 -12 -20 0 -35 -25 -25 -41 13 -22 42 -8
48 23 3 17 4 33 1 36 -3 3 -5 0 -5 -6z m-10 -37 c0 -8 -7 -15 -15 -15 -16 0
-20 12 -8 23 11 12 23 8 23 -8z"/>
<path d="M1410 4868 c0 -7 -3 -23 -6 -35 -6 -20 -3 -23 22 -22 29 1 29 1 4 9
l-25 7 25 11 c18 8 20 11 8 11 -26 1 -22 19 5 24 19 4 18 4 -5 6 -16 0 -28 -4
-28 -11z"/>
<path d="M1560 4872 c0 -7 -9 -12 -19 -12 -11 0 -22 -6 -24 -12 -4 -10 -6 -10
-6 0 -1 6 -10 12 -20 12 -18 0 -32 -19 -30 -43 0 -7 4 -2 9 11 5 12 14 22 20
22 7 0 9 -9 5 -22 -4 -16 -3 -19 3 -9 7 9 12 10 16 2 15 -23 43 -12 50 21 3
17 4 33 1 36 -3 3 -5 0 -5 -6z m-10 -37 c0 -8 -7 -15 -15 -15 -16 0 -20 12 -8
23 11 12 23 8 23 -8z"/>
<path d="M1604 4866 c-10 -26 1 -51 24 -54 12 -2 22 1 22 6 0 6 -9 8 -21 5
-17 -5 -20 -2 -17 18 2 18 9 24 26 23 12 0 22 3 22 8 0 14 -50 9 -56 -6z"/>
<path d="M1820 4873 c0 -6 -9 -13 -20 -16 -27 -7 -27 -47 -1 -47 14 0 21 9 26
31 4 17 4 33 1 36 -3 4 -6 2 -6 -4z m-6 -38 c-4 -8 -10 -15 -15 -15 -5 0 -9 7
-9 15 0 8 7 15 15 15 9 0 12 -6 9 -15z"/>
<path d="M2132 4848 c-2 -34 1 -38 21 -37 15 1 17 3 5 6 -10 2 -18 17 -21 36
-4 31 -4 31 -5 -5z"/>
<path d="M3200 4870 c0 -5 -6 -10 -14 -10 -8 0 -17 -6 -20 -12 -5 -10 -7 -10
-12 -1 -4 8 -11 7 -25 -5 -10 -9 -19 -20 -19 -24 0 -13 48 -9 53 5 4 10 6 10
6 0 1 -7 10 -13 21 -13 16 0 20 7 20 35 0 19 -2 35 -5 35 -3 0 -5 -4 -5 -10z
m0 -35 c0 -8 -4 -15 -10 -15 -5 0 -10 7 -10 15 0 8 5 15 10 15 6 0 10 -7 10
-15z"/>
<path d="M4430 4845 c0 -19 4 -35 8 -35 4 0 6 16 4 35 -2 19 -6 35 -8 35 -2 0
-4 -16 -4 -35z"/>
<path d="M1866 4863 c-10 -10 -7 -53 4 -53 5 0 7 7 3 16 -3 9 0 20 7 24 7 4 8
10 2 13 -5 4 -12 4 -16 0z"/>
<path d="M2244 4862 c-6 -4 -13 -15 -17 -24 -3 -10 -11 -18 -16 -18 -5 0 -11
8 -14 18 -3 13 -4 12 -3 -3 2 -30 43 -33 49 -3 l4 23 2 -22 c0 -13 5 -23 9
-23 8 0 9 46 1 54 -3 3 -9 2 -15 -2z"/>
<path d="M2390 4846 c0 -35 15 -40 16 -5 1 16 -3 29 -7 29 -5 0 -9 -11 -9 -24z"/>
<path d="M3004 4854 c3 -9 6 -22 6 -30 0 -8 4 -14 8 -14 5 0 7 14 4 30 -2 17
-9 30 -14 30 -6 0 -7 -7 -4 -16z"/>
<path d="M3780 4846 c0 -35 15 -40 16 -5 1 16 -3 29 -7 29 -5 0 -9 -11 -9 -24z"/>
<path d="M1190 4850 c13 -8 12 -10 -2 -10 -10 0 -18 -7 -18 -15 0 -8 9 -15 20
-15 15 0 20 7 20 25 0 17 -5 25 -17 25 -15 0 -16 -2 -3 -10z"/>
<path d="M1226 4845 c-3 -9 -6 -22 -5 -28 0 -7 5 -1 10 12 5 13 8 26 5 28 -2
2 -6 -3 -10 -12z"/>
<path d="M1277 4853 c-15 -15 -7 -43 13 -43 15 0 20 7 20 25 0 24 -18 34 -33
18z"/>
<path d="M1677 4853 c-15 -15 -7 -43 13 -43 11 0 20 6 20 13 0 9 2 9 9 -1 6
-10 10 -9 14 7 3 12 10 21 17 21 7 0 9 -8 5 -22 -5 -18 -4 -20 4 -8 17 23 13
40 -9 40 -11 0 -20 -5 -20 -12 0 -9 -3 -9 -12 0 -13 13 -31 16 -41 5z m27 -18
c-4 -8 -10 -15 -15 -15 -5 0 -9 7 -9 15 0 8 7 15 15 15 9 0 12 -6 9 -15z"/>
<path d="M1841 4853 c0 -6 -4 -20 -7 -30 -5 -14 -4 -15 5 -7 7 7 11 20 8 30
-3 11 -5 14 -6 7z"/>
<path d="M1896 4845 c-3 -9 -6 -22 -5 -28 0 -7 5 -1 10 12 5 13 8 26 5 28 -2
2 -6 -3 -10 -12z"/>
<path d="M1916 4843 c-4 -9 -2 -21 3 -26 15 -15 41 0 41 23 0 25 -35 28 -44 3z
m34 -8 c0 -8 -4 -15 -10 -15 -5 0 -10 7 -10 15 0 8 5 15 10 15 6 0 10 -7 10
-15z"/>
<path d="M1976 4844 c-3 -9 -6 -21 -5 -27 0 -7 4 -2 9 11 5 12 14 22 20 22 7
0 9 -9 5 -22 -5 -18 -4 -20 4 -8 6 8 11 21 11 28 0 18 -37 15 -44 -4z"/>
<path d="M2282 4838 c5 -34 38 -37 38 -4 0 20 -5 26 -21 26 -15 0 -20 -5 -17
-22z"/>
<path d="M2331 4833 c2 -23 2 -24 6 -5 5 27 30 29 36 2 4 -17 4 -16 3 2 -1 16
-8 24 -23 26 -20 3 -23 -1 -22 -25z"/>
<path d="M2424 4845 c-4 -9 -2 -21 4 -27 15 -15 41 -2 38 19 -4 23 -34 29 -42
8z m33 -1 c-3 -3 -12 -4 -19 -1 -8 3 -5 6 6 6 11 1 17 -2 13 -5z m0 -20 c-3
-3 -12 -4 -19 -1 -8 3 -5 6 6 6 11 1 17 -2 13 -5z"/>
<path d="M2501 4833 c2 -24 2 -25 6 -5 2 12 8 22 13 22 5 0 11 -10 13 -22 4
-20 4 -19 6 5 1 21 -4 27 -19 27 -15 0 -20 -6 -19 -27z"/>
<path d="M2554 4845 c-4 -9 -2 -21 4 -27 15 -15 44 -1 40 19 -4 23 -36 29 -44
8z m36 -10 c0 -8 -7 -15 -15 -15 -8 0 -15 7 -15 15 0 8 7 15 15 15 8 0 15 -7
15 -15z"/>
<path d="M2611 4833 c2 -24 2 -25 6 -5 2 12 8 22 13 22 5 0 11 -10 13 -22 4
-20 4 -19 6 5 1 21 -4 27 -19 27 -15 0 -20 -6 -19 -27z"/>
<path d="M2688 4848 c-8 -21 2 -38 23 -38 14 0 19 7 19 25 0 18 -5 25 -19 25
-10 0 -21 -6 -23 -12z"/>
<path d="M2761 4833 c1 -22 2 -23 6 -8 3 11 10 23 17 27 7 5 5 8 -6 8 -13 0
-18 -7 -17 -27z"/>
<path d="M2802 4835 c0 -16 2 -22 5 -12 2 9 2 23 0 30 -3 6 -5 -1 -5 -18z"/>
<path d="M2821 4838 c-1 -22 4 -28 19 -28 15 0 20 6 19 28 -2 23 -2 24 -6 5
-2 -13 -8 -23 -13 -23 -5 0 -11 10 -13 23 -4 19 -4 18 -6 -5z"/>
<path d="M2880 4850 c0 -5 8 -14 18 -19 16 -10 15 -10 -3 -11 -11 -1 -14 -4
-7 -7 7 -3 19 1 27 7 11 9 15 9 15 1 0 -6 9 -11 20 -11 11 0 20 4 20 10 0 5
-7 7 -15 4 -9 -4 -15 0 -15 9 0 9 8 18 18 20 13 4 12 5 -4 6 -12 0 -24 -6 -28
-14 -3 -9 -12 -12 -21 -8 -13 5 -14 7 -3 14 10 7 9 9 -4 9 -10 0 -18 -4 -18
-10z"/>
<path d="M2982 4835 c0 -16 2 -22 5 -12 2 9 2 23 0 30 -3 6 -5 -1 -5 -18z"/>
<path d="M3038 4848 c-8 -21 2 -38 23 -38 14 0 19 7 19 25 0 18 -5 25 -19 25
-10 0 -21 -6 -23 -12z m32 -13 c0 -8 -4 -15 -10 -15 -5 0 -10 7 -10 15 0 8 5
15 10 15 6 0 10 -7 10 -15z"/>
<path d="M3252 4835 c0 -16 2 -22 5 -12 2 9 2 23 0 30 -3 6 -5 -1 -5 -18z"/>
<path d="M3271 4833 c2 -24 2 -25 6 -5 2 12 8 22 13 22 5 0 11 -10 13 -22 4
-20 4 -19 6 5 1 21 -4 27 -19 27 -15 0 -20 -6 -19 -27z"/>
<path d="M3324 4838 c3 -26 36 -38 36 -14 0 9 -6 16 -12 16 -9 0 -8 4 2 10 12
8 11 10 -7 10 -18 0 -22 -5 -19 -22z"/>
<path d="M3378 4848 c-8 -21 2 -38 23 -38 14 0 19 7 19 25 0 18 -5 25 -19 25
-10 0 -21 -6 -23 -12z"/>
<path d="M3430 4835 c0 -14 2 -25 4 -25 2 0 6 11 8 25 3 14 1 25 -3 25 -5 0
-9 -11 -9 -25z"/>
<path d="M3462 4835 c0 -16 2 -22 5 -12 2 9 2 23 0 30 -3 6 -5 -1 -5 -18z"/>
<path d="M3490 4835 c0 -14 2 -25 4 -25 2 0 6 11 8 25 3 14 1 25 -3 25 -5 0
-9 -11 -9 -25z"/>
<path d="M3522 4838 c5 -34 38 -37 38 -4 0 20 -5 26 -21 26 -15 0 -20 -5 -17
-22z"/>
<path d="M3594 4835 c1 -13 9 -21 24 -23 18 -3 22 1 21 25 0 27 -1 27 -9 6
-11 -27 -27 -30 -33 -5 -3 13 -4 12 -3 -3z"/>
<path d="M3651 4833 c2 -24 2 -25 6 -5 2 12 8 22 13 22 5 0 11 -10 13 -22 4
-20 4 -19 6 5 1 21 -4 27 -19 27 -15 0 -20 -6 -19 -27z"/>
<path d="M3724 4851 c19 -7 19 -8 -3 -14 -27 -7 -19 -27 10 -27 14 0 19 7 19
25 0 19 -5 25 -22 24 -21 0 -22 -1 -4 -8z"/>
<path d="M3811 4833 c1 -22 2 -23 6 -8 3 11 10 23 17 27 7 5 5 8 -6 8 -13 0
-18 -7 -17 -27z"/>
<path d="M3864 4851 c19 -7 19 -8 -3 -14 -27 -7 -19 -27 10 -27 14 0 19 7 19
25 0 19 -5 25 -22 24 -21 0 -22 -1 -4 -8z"/>
<path d="M3902 4838 c3 -22 38 -39 38 -19 0 6 -7 8 -15 5 -9 -4 -15 0 -15 9 0
9 8 18 18 20 12 3 11 5 -6 6 -19 1 -23 -3 -20 -21z"/>
<path d="M3954 4845 c-11 -27 25 -50 40 -26 4 5 -3 7 -14 4 -14 -4 -20 0 -20
10 0 9 8 18 18 20 16 4 16 5 -1 6 -10 0 -20 -6 -23 -14z"/>
<path d="M4012 4835 c0 -16 2 -22 5 -12 2 9 2 23 0 30 -3 6 -5 -1 -5 -18z"/>
<path d="M4045 4850 c17 -7 17 -9 3 -9 -25 -1 -23 -31 2 -31 15 0 20 7 20 25
0 19 -5 25 -22 24 -22 0 -22 -1 -3 -9z"/>
<path d="M4101 4833 c2 -24 2 -25 6 -5 2 12 11 22 18 22 7 0 16 -10 18 -22 l4
-23 2 23 c0 12 5 22 10 22 5 0 12 -10 14 -22 4 -20 4 -19 6 5 1 25 -2 27 -39
27 -37 0 -40 -2 -39 -27z"/>
<path d="M4194 4835 c1 -13 9 -21 24 -23 18 -3 22 1 21 25 0 27 -1 27 -9 6
-11 -27 -27 -30 -33 -5 -3 13 -4 12 -3 -3z"/>
<path d="M4253 4835 c0 -18 5 -25 18 -25 24 0 25 30 2 31 -15 0 -15 2 2 9 20
8 19 9 -1 9 -16 1 -21 -5 -21 -24z"/>
<path d="M4302 4835 c0 -16 2 -22 5 -12 2 9 2 23 0 30 -3 6 -5 -1 -5 -18z"/>
<path d="M4324 4845 c-9 -24 3 -32 51 -33 41 0 45 2 45 24 0 19 -5 24 -22 23
-20 -1 -21 -2 -4 -6 17 -4 14 -8 -13 -19 -18 -8 -37 -14 -42 -14 -17 0 -9 28
9 33 16 4 16 5 -1 6 -10 0 -20 -6 -23 -14z"/>
<path d="M4458 4848 c-8 -21 2 -38 23 -38 14 0 19 7 19 25 0 18 -5 25 -19 25
-10 0 -21 -6 -23 -12z"/>
<path d="M2180 4721 c0 -17 4 -32 8 -35 4 -2 6 11 4 30 -5 42 -12 45 -12 5z"/>
<path d="M2210 4715 c0 -19 4 -35 8 -35 4 0 6 16 4 35 -2 19 -6 35 -8 35 -2 0
-4 -16 -4 -35z"/>
<path d="M2630 4741 c0 -5 -9 -11 -21 -14 -28 -7 -21 -41 9 -45 19 -3 22 1 22
32 0 20 -2 36 -5 36 -3 0 -5 -4 -5 -9z m0 -36 c0 -8 -7 -15 -15 -15 -8 0 -15
7 -15 15 0 8 7 15 15 15 8 0 15 -7 15 -15z"/>
<path d="M2700 4721 c0 -17 4 -32 8 -35 4 -2 6 11 4 30 -5 42 -12 45 -12 5z"/>
<path d="M2731 4719 c-1 -34 0 -36 34 -37 31 -1 35 1 35 23 0 20 -5 25 -22 24
-19 -1 -20 -2 -4 -6 17 -4 16 -6 -5 -17 -22 -11 -24 -10 -30 19 l-6 30 -2 -36z"/>
<path d="M2891 4719 c-1 -34 0 -36 34 -37 31 -1 35 1 35 23 0 20 -5 25 -22 24
-19 -1 -20 -2 -4 -6 17 -4 16 -6 -5 -17 -22 -11 -24 -10 -30 19 l-6 30 -2 -36z"/>
<path d="M3022 4718 c-2 -28 2 -38 13 -38 10 0 15 9 14 28 l-1 27 -8 -25 c-7
-24 -7 -23 -12 10 l-5 35 -1 -37z"/>
<path d="M2340 4716 c0 -35 15 -40 16 -5 1 16 -3 29 -7 29 -5 0 -9 -11 -9 -24z"/>
<path d="M3118 4735 c-7 -7 3 -55 11 -55 8 0 7 47 -1 55 -2 3 -7 3 -10 0z"/>
<path d="M2145 4720 c17 -7 17 -9 3 -9 -25 -1 -23 -31 2 -31 15 0 20 7 20 25
0 19 -5 25 -22 24 -22 0 -22 -1 -3 -9z"/>
<path d="M2262 4705 c0 -16 2 -22 5 -12 2 9 2 23 0 30 -3 6 -5 -1 -5 -18z"/>
<path d="M2281 4703 c2 -23 2 -24 6 -5 5 27 30 29 36 2 4 -17 4 -16 3 2 -1 16
-8 24 -23 26 -20 3 -23 -1 -22 -25z"/>
<path d="M2374 4715 c-4 -9 -2 -21 4 -27 15 -15 41 -2 38 19 -4 23 -34 29 -42
8z m33 -1 c-3 -3 -12 -4 -19 -1 -8 3 -5 6 6 6 11 1 17 -2 13 -5z m0 -20 c-3
-3 -12 -4 -19 -1 -8 3 -5 6 6 6 11 1 17 -2 13 -5z"/>
<path d="M2430 4705 c0 -14 2 -25 4 -25 2 0 6 11 8 25 3 14 1 25 -3 25 -5 0
-9 -11 -9 -25z"/>
<path d="M2461 4703 c2 -24 2 -25 6 -5 2 12 8 22 13 22 5 0 11 -10 13 -22 4
-20 4 -19 6 5 1 21 -4 27 -19 27 -15 0 -20 -6 -19 -27z"/>
<path d="M2518 4718 c-8 -21 2 -38 23 -38 14 0 19 7 19 25 0 18 -5 25 -19 25
-10 0 -21 -6 -23 -12z m32 -13 c0 -8 -4 -15 -10 -15 -5 0 -10 7 -10 15 0 8 5
15 10 15 6 0 10 -7 10 -15z"/>
<path d="M2652 4708 c5 -34 38 -37 38 -4 0 20 -5 26 -21 26 -15 0 -20 -5 -17
-22z"/>
<path d="M2830 4693 c0 -21 4 -33 8 -27 4 6 15 13 25 17 25 9 17 41 -11 45
-19 3 -22 -1 -22 -35z m32 12 c0 -5 -5 -11 -11 -13 -6 -2 -11 4 -11 13 0 9 5
15 11 13 6 -2 11 -8 11 -13z"/>
<path d="M2973 4698 c2 -46 11 -48 26 -7 14 40 14 49 -1 24 -11 -19 -11 -19
-19 0 -5 14 -7 8 -6 -17z"/>
<path d="M3070 4720 c0 -6 8 -14 17 -17 15 -6 15 -7 -3 -14 -16 -6 -16 -8 -2
-8 23 -1 33 18 13 25 -13 6 -14 8 -3 15 10 7 9 9 -4 9 -10 0 -18 -5 -18 -10z"/>
<path d="M1763 4598 c-6 -7 -16 -23 -22 -36 -12 -22 -11 -22 9 -10 17 11 22
11 30 -2 8 -12 10 -11 10 7 0 16 -4 21 -15 17 -8 -4 -15 -2 -15 4 0 6 6 12 13
15 6 2 9 7 6 11 -3 4 -11 1 -16 -6z"/>
<path d="M2133 4580 c2 -30 5 -35 27 -35 22 0 25 5 27 35 1 34 1 34 -5 5 -4
-17 -14 -30 -22 -30 -8 0 -18 13 -22 30 -6 29 -6 29 -5 -5z"/>
<path d="M2470 4596 c0 -8 9 -18 20 -21 26 -8 26 -29 0 -22 -11 3 -18 2 -15
-3 7 -11 125 -10 125 1 0 6 -8 13 -17 16 -15 6 -15 7 3 14 17 7 17 8 -3 8 -27
1 -30 -14 -5 -28 16 -10 16 -10 -1 -11 -11 0 -21 9 -24 20 -6 21 -19 27 -25
11 -1 -5 -14 -3 -28 5 -24 14 -24 15 -2 11 12 -3 22 -1 22 4 0 5 -11 9 -25 9
-15 0 -25 -6 -25 -14z"/>
<path d="M1860 4570 c0 -39 15 -39 16 0 1 17 -3 30 -7 30 -5 0 -9 -13 -9 -30z"/>
<path d="M2200 4570 c0 -27 2 -29 38 -27 30 2 37 6 37 22 0 28 -35 33 -42 6
-3 -12 -10 -21 -15 -21 -6 0 -7 11 -4 25 4 14 2 25 -4 25 -5 0 -10 -13 -10
-30z m67 -16 c-3 -3 -12 -4 -19 -1 -8 3 -5 6 6 6 11 1 17 -2 13 -5z"/>
<path d="M2343 4586 c4 -10 7 -24 7 -32 0 -8 4 -14 8 -14 13 0 6 54 -8 58 -9
3 -11 -1 -7 -12z"/>
<path d="M2610 4570 c0 -28 3 -30 35 -30 31 0 35 3 35 25 0 18 -5 25 -20 25
-13 0 -20 -7 -20 -20 0 -11 -5 -20 -11 -20 -7 0 -9 10 -5 25 4 14 2 25 -4 25
-5 0 -10 -13 -10 -30z"/>
<path d="M1804 4575 c-3 -8 -3 -19 1 -25 8 -13 35 -13 35 0 0 5 -7 7 -15 4 -9
-4 -15 0 -15 9 0 9 10 18 23 20 l22 4 -23 2 c-12 0 -25 -6 -28 -14z"/>
<path d="M1897 4583 c-15 -15 -7 -43 13 -43 11 0 20 6 20 13 0 9 2 9 8 0 5 -8
11 -3 19 13 6 13 7 24 2 24 -5 0 -9 -5 -9 -12 0 -9 -3 -9 -12 0 -13 13 -31 16
-41 5z m27 -18 c-4 -8 -10 -15 -15 -15 -5 0 -9 7 -9 15 0 8 7 15 15 15 9 0 12
-6 9 -15z"/>
<path d="M1980 4582 c0 -4 6 -14 13 -21 10 -12 8 -13 -8 -7 -15 6 -17 4 -8 -5
6 -6 20 -9 30 -5 17 7 17 8 0 21 -18 13 -18 13 0 18 14 4 14 5 -4 6 -13 0 -23
-3 -23 -7z"/>
<path d="M2291 4563 c2 -24 2 -25 6 -5 2 12 8 22 13 22 5 0 11 -10 13 -22 4
-20 4 -19 6 5 1 21 -4 27 -19 27 -15 0 -20 -6 -19 -27z"/>
<path d="M2374 4575 c-8 -20 4 -35 27 -35 14 0 19 7 19 25 0 18 -5 25 -20 25
-11 0 -23 -7 -26 -15z"/>
<path d="M2690 4565 c0 -31 17 -33 23 -2 4 22 4 22 15 -3 10 -24 11 -24 11 -2
1 12 5 22 10 22 5 0 12 -10 14 -22 4 -20 4 -19 6 5 1 25 -2 27 -39 27 -36 0
-40 -2 -40 -25z"/>
<path d="M2800 4581 c13 -9 13 -11 -2 -11 -10 0 -18 -7 -18 -15 0 -9 10 -15
26 -15 21 0 25 4 22 22 -2 14 -11 24 -23 26 -17 3 -17 1 -5 -7z"/>
<path d="M1753 4403 c-1 -26 1 -33 7 -23 6 8 10 23 10 32 0 9 6 19 13 21 6 3
3 6 -8 6 -16 1 -20 -6 -22 -36z"/>
<path d="M2130 4405 c0 -34 2 -36 28 -33 23 3 27 8 27 33 0 25 -4 30 -27 33
-26 3 -28 1 -28 -33z m45 0 c0 -11 -8 -21 -17 -23 -14 -3 -18 3 -18 23 0 20 4
26 18 23 9 -2 17 -12 17 -23z"/>
<path d="M2830 4405 c0 -19 4 -35 8 -35 4 0 6 16 4 35 -2 19 -6 35 -8 35 -2 0
-4 -16 -4 -35z"/>
<path d="M3141 4408 c-1 -37 0 -38 34 -38 35 0 40 5 29 34 -5 13 -9 12 -27 -5
l-22 -20 -6 33 -6 33 -2 -37z"/>
<path d="M3301 4408 c-1 -37 0 -38 34 -38 35 0 40 5 29 34 -5 13 -9 12 -27 -5
l-22 -20 -6 33 -6 33 -2 -37z"/>
<path d="M3410 4415 c-12 -23 -14 -23 -27 -7 -11 15 -12 13 -3 -11 6 -16 8
-33 4 -38 -3 -5 -2 -9 1 -9 3 0 12 15 20 33 8 17 14 24 15 15 0 -9 4 -19 8
-22 4 -2 6 11 4 30 -2 19 -5 34 -6 34 -2 0 -9 -11 -16 -25z"/>
<path d="M3610 4405 c0 -19 4 -35 8 -35 4 0 6 16 4 35 -2 19 -6 35 -8 35 -2 0
-4 -16 -4 -35z"/>
<path d="M4010 4405 c0 -19 4 -35 8 -35 4 0 6 16 4 35 -2 19 -6 35 -8 35 -2 0
-4 -16 -4 -35z"/>
<path d="M4350 4405 c0 -19 4 -35 8 -35 4 0 6 16 4 35 -2 19 -6 35 -8 35 -2 0
-4 -16 -4 -35z"/>
<path d="M4510 4405 c0 -19 4 -35 8 -35 4 0 6 16 4 35 -2 19 -6 35 -8 35 -2 0
-4 -16 -4 -35z"/>
<path d="M1874 4415 c-4 -8 -10 -15 -16 -15 -5 0 -7 4 -4 8 2 4 -10 9 -28 10
-27 2 -35 -2 -39 -20 -4 -12 -4 -24 -1 -27 3 -3 7 5 11 17 7 27 23 29 23 3 0
-27 20 -39 64 -37 41 1 60 21 29 29 -15 4 -15 5 -2 6 9 0 19 11 22 24 5 20 5
20 -7 5 -15 -20 -31 -25 -20 -6 4 7 3 8 -4 4 -7 -4 -12 -15 -12 -26 0 -14 -5
-17 -22 -12 -17 5 -19 7 -7 10 10 2 19 12 22 23 6 22 -1 26 -9 4z m-16 -49
c12 -3 11 -4 -3 -3 -12 1 -20 10 -21 22 -1 14 0 15 3 3 2 -9 12 -19 21 -22z
m59 -2 c-3 -3 -12 -4 -19 -1 -8 3 -5 6 6 6 11 1 17 -2 13 -5z"/>
<path d="M3024 4414 c3 -9 6 -22 6 -30 0 -8 4 -14 8 -14 5 0 7 14 4 30 -2 17
-9 30 -14 30 -6 0 -7 -7 -4 -16z"/>
<path d="M3524 4414 c3 -9 6 -22 6 -30 0 -8 4 -14 8 -14 5 0 7 14 4 30 -2 17
-9 30 -14 30 -6 0 -7 -7 -4 -16z"/>
<path d="M3708 4425 c-7 -7 3 -55 11 -55 8 0 7 47 -1 55 -2 3 -7 3 -10 0z"/>
<path d="M3850 4406 c0 -35 15 -40 16 -5 1 16 -3 29 -7 29 -5 0 -9 -11 -9 -24z"/>
<path d="M4694 4414 c3 -9 6 -22 6 -30 0 -8 4 -14 8 -14 5 0 7 14 4 30 -2 17
-9 30 -14 30 -6 0 -7 -7 -4 -16z"/>
<path d="M1947 4413 c-15 -15 -7 -43 13 -43 15 0 20 7 20 25 0 24 -18 34 -33
18z"/>
<path d="M1995 4399 c-10 -30 -2 -32 12 -3 6 13 7 24 3 24 -5 0 -12 -9 -15
-21z"/>
<path d="M2202 4398 c4 -27 33 -36 42 -13 8 22 -1 35 -25 35 -15 0 -20 -6 -17
-22z m30 -3 c0 -5 -5 -11 -11 -13 -6 -2 -11 4 -11 13 0 9 5 15 11 13 6 -2 11
-8 11 -13z"/>
<path d="M2261 4383 c0 -21 3 -32 6 -25 2 6 11 12 19 12 8 0 14 10 14 25 0 18
-5 25 -20 25 -17 0 -20 -6 -19 -37z m29 12 c0 -8 -4 -15 -10 -15 -5 0 -10 7
-10 15 0 8 5 15 10 15 6 0 10 -7 10 -15z"/>
<path d="M2314 4405 c-4 -9 -2 -21 4 -27 15 -15 44 -1 40 19 -4 23 -36 29 -44
8z m36 -10 c0 -8 -7 -15 -15 -15 -8 0 -15 7 -15 15 0 8 7 15 15 15 8 0 15 -7
15 -15z"/>
<path d="M2405 4410 c17 -7 17 -9 3 -9 -25 -1 -23 -31 2 -31 15 0 20 7 20 25
0 19 -5 25 -22 24 -22 0 -22 -1 -3 -9z"/>
<path d="M2446 4400 c3 -14 8 -27 11 -30 6 -7 23 23 22 40 0 10 -3 8 -8 -5 -8
-19 -8 -19 -20 0 -11 18 -11 18 -5 -5z"/>
<path d="M2492 4398 c5 -34 38 -37 38 -4 0 20 -5 26 -21 26 -15 0 -20 -5 -17
-22z"/>
<path d="M2541 4393 c1 -22 2 -23 6 -8 3 11 10 23 17 27 7 5 5 8 -6 8 -13 0
-18 -7 -17 -27z"/>
<path d="M2601 4410 c0 -8 3 -21 8 -29 7 -11 11 -10 20 7 14 27 14 43 -1 17
-11 -19 -11 -19 -19 0 -5 13 -8 15 -8 5z"/>
<path d="M2652 4395 c0 -16 2 -22 5 -12 2 9 2 23 0 30 -3 6 -5 -1 -5 -18z"/>
<path d="M2673 4395 c0 -18 5 -25 18 -25 24 0 25 30 2 31 -15 0 -15 2 2 9 20
8 19 9 -1 9 -16 1 -21 -5 -21 -24z"/>
<path d="M2721 4398 c-1 -22 4 -28 19 -28 15 0 20 6 19 28 -2 23 -2 24 -6 5
-2 -13 -8 -23 -13 -23 -5 0 -11 10 -13 23 -4 19 -4 18 -6 -5z"/>
<path d="M2794 4411 c19 -7 19 -8 -3 -14 -27 -7 -19 -27 10 -27 14 0 19 7 19
25 0 19 -5 25 -22 24 -21 0 -22 -1 -4 -8z"/>
<path d="M2862 4395 c0 -16 2 -22 5 -12 2 9 2 23 0 30 -3 6 -5 -1 -5 -18z"/>
<path d="M2889 4411 c9 -6 10 -11 2 -15 -23 -15 -9 -26 32 -26 27 0 37 3 28 9
-9 6 -10 11 -2 15 15 10 14 26 -3 26 -8 0 -13 -8 -12 -17 1 -12 -7 -19 -24
-22 -25 -3 -25 -3 -6 18 19 21 19 21 -5 21 -17 0 -20 -3 -10 -9z"/>
<path d="M2988 4400 c-24 -23 -23 -30 7 -30 25 0 32 15 17 36 -5 8 -12 6 -24
-6z"/>
<path d="M3058 4408 c-8 -21 2 -38 23 -38 14 0 19 7 19 25 0 18 -5 25 -19 25
-10 0 -21 -6 -23 -12z m32 -13 c0 -8 -4 -15 -10 -15 -5 0 -10 7 -10 15 0 8 5
15 10 15 6 0 10 -7 10 -15z"/>
<path d="M3241 4383 c0 -21 3 -32 6 -25 2 6 11 12 19 12 8 0 14 10 14 25 0 18
-5 25 -20 25 -17 0 -20 -6 -19 -37z m29 12 c0 -8 -4 -15 -10 -15 -5 0 -10 7
-10 15 0 8 5 15 10 15 6 0 10 -7 10 -15z"/>
<path d="M3452 4395 c0 -16 2 -22 5 -12 2 9 2 23 0 30 -3 6 -5 -1 -5 -18z"/>
<path d="M3474 4398 c3 -26 36 -38 36 -14 0 9 -6 16 -12 16 -9 0 -8 4 2 10 12
8 11 10 -7 10 -18 0 -22 -5 -19 -22z"/>
<path d="M3651 4398 c-1 -22 4 -28 19 -28 15 0 20 6 19 28 -2 23 -2 24 -6 5
-2 -13 -8 -23 -13 -23 -5 0 -11 10 -13 23 -4 19 -4 18 -6 -5z"/>
<path d="M3742 4398 c5 -34 38 -37 38 -4 0 20 -5 26 -21 26 -15 0 -20 -5 -17
-22z"/>
<path d="M3791 4393 c2 -23 2 -24 6 -5 5 27 30 29 36 2 4 -17 4 -16 3 2 -1 16
-8 24 -23 26 -20 3 -23 -1 -22 -25z"/>
<path d="M3884 4405 c-4 -9 -2 -21 4 -27 15 -15 41 -2 38 19 -4 23 -34 29 -42
8z m33 -1 c-3 -3 -12 -4 -19 -1 -8 3 -5 6 6 6 11 1 17 -2 13 -5z m0 -20 c-3
-3 -12 -4 -19 -1 -8 3 -5 6 6 6 11 1 17 -2 13 -5z"/>
<path d="M3958 4408 c-3 -7 -3 -19 -1 -25 5 -15 43 -18 43 -3 0 5 -7 7 -15 4
-9 -4 -15 0 -15 9 0 9 8 18 18 20 13 4 12 5 -4 6 -12 0 -24 -5 -26 -11z"/>
<path d="M4042 4395 c0 -16 2 -22 5 -12 2 9 2 23 0 30 -3 6 -5 -1 -5 -18z"/>
<path d="M4062 4398 c3 -22 38 -39 38 -19 0 6 -7 8 -15 5 -9 -4 -15 0 -15 9 0
9 8 18 18 20 12 3 11 5 -6 6 -19 1 -23 -3 -20 -21z"/>
<path d="M4114 4405 c-11 -27 25 -50 40 -26 4 5 -3 7 -14 4 -14 -4 -20 0 -20
10 0 9 8 18 18 20 16 4 16 5 -1 6 -10 0 -20 -6 -23 -14z"/>
<path d="M4185 4410 c17 -7 17 -9 3 -9 -25 -1 -23 -31 2 -31 15 0 20 7 20 25
0 19 -5 25 -22 24 -22 0 -22 -1 -3 -9z"/>
<path d="M4244 4398 c3 -26 36 -38 36 -14 0 9 -6 16 -12 16 -9 0 -8 4 2 10 12
8 11 10 -7 10 -18 0 -22 -5 -19 -22z"/>
<path d="M4294 4395 c1 -13 9 -21 24 -23 18 -3 22 1 21 25 0 27 -1 27 -9 6
-11 -27 -27 -30 -33 -5 -3 13 -4 12 -3 -3z"/>
<path d="M4401 4383 c0 -21 3 -32 6 -25 2 6 11 12 19 12 8 0 14 10 14 25 0 18
-5 25 -20 25 -17 0 -20 -6 -19 -37z m29 12 c0 -8 -4 -15 -10 -15 -5 0 -10 7
-10 15 0 8 5 15 10 15 6 0 10 -7 10 -15z"/>
<path d="M4454 4395 c1 -13 9 -21 24 -23 18 -3 22 1 21 25 0 27 -1 27 -9 6
-11 -27 -27 -30 -33 -5 -3 13 -4 12 -3 -3z"/>
<path d="M4540 4410 c0 -6 8 -14 17 -17 15 -6 14 -7 -3 -13 -12 -5 -2 -8 29
-8 31 -1 47 3 47 11 0 16 -20 46 -20 31 0 -15 -26 -25 -46 -17 -13 5 -13 7 -2
14 10 7 9 9 -4 9 -10 0 -18 -5 -18 -10z"/>
<path d="M4641 4393 c2 -24 2 -25 6 -5 2 12 8 22 13 22 5 0 11 -10 13 -22 4
-20 4 -19 6 5 1 21 -4 27 -19 27 -15 0 -20 -6 -19 -27z"/>
<path d="M4728 4408 c-8 -21 2 -38 23 -38 14 0 19 7 19 25 0 18 -5 25 -19 25
-10 0 -21 -6 -23 -12z"/>
<path d="M2173 4266 c-10 -33 -10 -34 8 -23 16 10 21 9 29 -3 14 -21 13 4 -2
35 -15 34 -23 32 -35 -9z m27 4 c0 -5 -5 -10 -11 -10 -5 0 -7 5 -4 10 3 6 8
10 11 10 2 0 4 -4 4 -10z"/>
<path d="M2502 4288 c-7 -7 -12 -19 -11 -27 0 -11 3 -10 9 4 8 18 9 17 9 -7 1
-20 -3 -26 -14 -22 -15 6 -20 18 -15 39 1 6 -2 7 -6 2 -13 -12 -10 -59 3 -64
23 -9 44 18 41 53 -1 19 -3 34 -3 34 -1 0 -6 -5 -13 -12z m-5 -64 c-3 -3 -12
-4 -19 -1 -8 3 -5 6 6 6 11 1 17 -2 13 -5z"/>
<path d="M2248 4283 c-13 -3 -18 -15 -18 -39 0 -29 3 -34 23 -33 21 0 21 1 2
9 l-20 9 20 1 20 1 -20 9 c-17 7 -17 9 -2 9 10 1 17 9 17 21 0 11 -1 19 -2 19
-2 -1 -11 -3 -20 -6z"/>
<path d="M2299 4283 c-22 -6 -31 -63 -11 -71 23 -8 47 12 49 44 2 29 1 29 -5
3 -6 -21 -11 -25 -27 -18 -17 6 -17 8 -2 8 10 1 17 9 17 21 0 11 -1 19 -2 19
-2 -1 -10 -3 -19 -6z m18 -59 c-3 -3 -12 -4 -19 -1 -8 3 -5 6 6 6 11 1 17 -2
13 -5z"/>
<path d="M2354 4255 c1 -13 9 -21 24 -23 18 -3 22 1 21 25 0 27 -1 27 -9 6
-11 -27 -27 -30 -33 -5 -3 13 -4 12 -3 -3z"/>
<path d="M2411 4253 c2 -24 2 -25 6 -5 2 12 8 22 13 22 5 0 11 -10 13 -22 4
-20 4 -19 6 5 1 21 -4 27 -19 27 -15 0 -20 -6 -19 -27z"/>
<path d="M2561 4258 c-1 -22 4 -28 19 -28 15 0 20 6 19 28 -2 23 -2 24 -6 5
-2 -13 -8 -23 -13 -23 -5 0 -11 10 -13 23 -4 19 -4 18 -6 -5z"/>
<path d="M2611 4253 c2 -23 2 -24 6 -5 5 27 30 29 36 2 4 -17 4 -16 3 2 -1 16
-8 24 -23 26 -20 3 -23 -1 -22 -25z"/>
<path d="M2685 4270 c17 -7 17 -9 3 -9 -25 -1 -23 -31 2 -31 15 0 20 7 20 25
0 19 -5 25 -22 24 -22 0 -22 -1 -3 -9z"/>
<path d="M2744 4265 c-9 -24 3 -32 51 -33 41 0 45 2 45 24 0 19 -5 24 -22 23
-20 -1 -21 -2 -4 -6 17 -4 14 -8 -13 -19 -18 -8 -37 -14 -42 -14 -17 0 -9 28
9 33 16 4 16 5 -1 6 -10 0 -20 -6 -23 -14z"/>
<path d="M2851 4253 c2 -24 2 -25 6 -5 2 12 8 22 13 22 5 0 11 -10 13 -22 4
-20 4 -19 6 5 1 21 -4 27 -19 27 -15 0 -20 -6 -19 -27z"/>
<path d="M2915 4270 c4 -6 1 -17 -5 -25 -10 -12 -8 -15 11 -15 17 0 20 3 10 9
-9 6 -10 11 -2 15 16 10 13 26 -5 26 -8 0 -12 -5 -9 -10z"/>
<path d="M2954 4265 c-4 -9 -2 -21 4 -27 15 -15 44 -1 40 19 -4 23 -36 29 -44
8z m36 -10 c0 -8 -7 -15 -15 -15 -8 0 -15 7 -15 15 0 8 7 15 15 15 8 0 15 -7
15 -15z"/>
<path d="M3011 4253 c2 -24 2 -25 6 -5 2 12 8 22 13 22 5 0 11 -10 13 -22 4
-20 4 -19 6 5 1 21 -4 27 -19 27 -15 0 -20 -6 -19 -27z"/>
<path d="M3064 4265 c-4 -9 -2 -21 4 -27 15 -15 41 -2 38 19 -4 23 -34 29 -42
8z m33 -1 c-3 -3 -12 -4 -19 -1 -8 3 -5 6 6 6 11 1 17 -2 13 -5z m0 -20 c-3
-3 -12 -4 -19 -1 -8 3 -5 6 6 6 11 1 17 -2 13 -5z"/>
<path d="M2793 4193 c368 -2 966 -2 1330 0 364 1 64 2 -668 2 -731 0 -1029 -1
-662 -2z"/>
<path d="M1526 4158 c-15 -49 -14 -58 9 -58 27 0 48 22 43 47 -4 21 -46 30
-52 11z m42 -20 c-5 -34 -38 -37 -38 -4 0 20 5 26 21 26 15 0 20 -5 17 -22z"/>
<path d="M1866 4153 c-10 -10 -7 -53 4 -53 5 0 7 7 3 16 -3 9 0 20 7 24 7 4 8
10 2 13 -5 4 -12 4 -16 0z"/>
<path d="M2180 4145 c0 -9 7 -18 15 -21 8 -4 15 -10 15 -15 0 -4 -7 -6 -15 -3
-8 4 -15 1 -15 -5 0 -6 11 -11 25 -11 30 0 34 26 8 47 -17 14 -17 14 0 9 9 -3
17 -1 17 4 0 6 -11 10 -25 10 -16 0 -25 -6 -25 -15z"/>
<path d="M2247 4153 c-7 -11 3 -63 12 -63 8 0 6 58 -2 66 -3 3 -7 2 -10 -3z"/>
<path d="M2802 4128 c2 -28 7 -33 28 -33 21 0 26 5 28 33 2 18 -1 32 -7 32 -6
0 -11 -13 -11 -30 0 -16 -4 -30 -10 -30 -5 0 -10 14 -10 30 0 17 -5 30 -11 30
-6 0 -9 -14 -7 -32z"/>
<path d="M3056 4151 c-3 -4 -9 -19 -14 -32 -9 -24 -8 -24 49 -26 33 -1 59 3
59 7 0 5 -7 7 -15 4 -10 -4 -15 0 -15 11 0 11 5 15 15 11 8 -3 15 -1 15 4 0
16 -38 11 -48 -6 -8 -14 -10 -12 -16 10 -6 26 -20 34 -30 17z"/>
<path d="M3167 4153 c-7 -11 3 -63 12 -63 8 0 6 58 -2 66 -3 3 -7 2 -10 -3z"/>
<path d="M3505 4150 c-3 -5 3 -15 15 -22 27 -17 26 -31 -2 -23 -18 6 -20 4
-12 -5 16 -16 48 -9 52 11 1 9 -7 21 -20 27 l-23 12 23 -6 c12 -3 22 -1 22 5
0 14 -47 14 -55 1z"/>
<path d="M3677 4153 c-7 -11 3 -63 12 -63 8 0 6 58 -2 66 -3 3 -7 2 -10 -3z"/>
<path d="M3896 4151 c-3 -4 -9 -19 -14 -32 -9 -24 -8 -24 49 -26 33 -1 59 3
59 7 0 5 -7 7 -15 4 -9 -4 -15 0 -15 9 0 22 38 17 43 -5 3 -10 14 -18 26 -18
27 0 31 49 4 52 -41 3 -79 -4 -89 -18 -10 -12 -13 -10 -18 11 -6 25 -20 33
-30 16z m144 -36 c0 -8 -4 -15 -10 -15 -5 0 -10 7 -10 15 0 8 5 15 10 15 6 0
10 -7 10 -15z"/>
<path d="M1597 4143 c-15 -15 -7 -43 13 -43 15 0 20 7 20 25 0 24 -18 34 -33
18z"/>
<path d="M1650 4143 c0 -5 6 -15 13 -22 10 -11 9 -13 -5 -8 -10 4 -18 2 -18
-3 0 -6 9 -10 20 -10 24 0 26 16 5 36 -8 9 -15 12 -15 7z"/>
<path d="M1694 4135 c-3 -8 -3 -19 1 -25 8 -13 35 -13 35 0 0 5 -7 7 -15 4 -9
-4 -15 0 -15 9 0 9 10 18 23 20 l22 4 -23 2 c-12 0 -25 -6 -28 -14z"/>
<path d="M1747 4128 c-4 -12 -4 -24 -1 -27 3 -3 7 5 11 17 7 28 21 28 25 0 3
-21 4 -21 9 5 5 23 3 27 -16 27 -15 0 -25 -8 -28 -22z"/>
<path d="M1806 4134 c-9 -22 -7 -61 2 -48 4 6 15 13 25 17 24 9 23 47 -2 47
-10 0 -22 -7 -25 -16z m34 -9 c0 -8 -7 -15 -15 -15 -16 0 -20 12 -8 23 11 12
23 8 23 -8z"/>
<path d="M1896 4135 c-3 -9 -6 -22 -5 -28 0 -7 5 -1 10 12 5 13 8 26 5 28 -2
2 -6 -3 -10 -12z"/>
<path d="M1916 4133 c-4 -9 -2 -21 3 -26 15 -15 41 0 41 23 0 25 -35 28 -44 3z
m34 -8 c0 -8 -4 -15 -10 -15 -5 0 -10 7 -10 15 0 8 5 15 10 15 6 0 10 -7 10
-15z"/>
<path d="M1976 4134 c-3 -9 -6 -21 -5 -27 0 -7 4 -2 9 11 5 12 14 22 20 22 7
0 9 -9 5 -22 -5 -18 -4 -20 4 -8 6 8 11 21 11 28 0 18 -37 15 -44 -4z"/>
<path d="M2280 4113 c0 -22 4 -25 25 -21 17 4 25 1 25 -8 0 -8 5 -14 10 -14 6
0 10 5 10 10 0 6 7 10 15 10 9 0 15 9 15 24 0 23 -4 25 -50 24 -47 0 -50 -2
-50 -25z m90 8 c0 -6 -4 -13 -10 -16 -5 -3 -10 1 -10 9 0 9 5 16 10 16 6 0 10
-4 10 -9z"/>
<path d="M2873 4116 c0 -22 4 -24 48 -24 45 0 49 2 49 24 0 17 -6 24 -20 24
-11 0 -23 -6 -26 -14 -3 -8 -12 -12 -21 -9 -12 5 -12 7 -1 14 9 6 7 9 -8 9
-16 0 -21 -6 -21 -24z"/>
<path d="M2980 4115 c0 -14 4 -25 9 -25 5 0 11 11 13 25 4 17 1 25 -8 25 -8 0
-14 -11 -14 -25z"/>
<path d="M3200 4115 c0 -18 6 -22 32 -23 18 0 36 5 40 11 6 9 8 9 8 0 0 -22
18 -14 23 10 l4 22 2 -22 c1 -31 21 -29 21 2 0 23 -2 24 -65 23 -60 -1 -65 -3
-65 -23z m60 0 c0 -8 -4 -15 -10 -15 -5 0 -10 7 -10 15 0 8 5 15 10 15 6 0 10
-7 10 -15z"/>
<path d="M3570 4119 c7 -11 9 -27 6 -35 -11 -28 14 -13 26 15 12 28 14 29 33
14 16 -13 17 -15 3 -10 -10 4 -18 2 -18 -3 0 -6 9 -10 20 -10 11 0 20 7 20 15
0 8 -6 15 -12 15 -9 0 -8 4 2 10 11 7 7 10 -17 10 -19 0 -33 -5 -33 -12 0 -9
-3 -9 -12 0 -19 19 -30 14 -18 -9z"/>
<path d="M3710 4115 c0 -22 4 -26 23 -23 14 2 22 10 22 23 0 13 -8 21 -22 23
-19 3 -23 -1 -23 -23z"/>
<path d="M3771 4113 c2 -24 2 -25 6 -5 5 27 23 29 23 2 0 -27 18 -25 23 3 l4
22 2 -22 c2 -31 21 -29 21 2 0 23 -4 25 -40 25 -37 0 -40 -2 -39 -27z"/>
<path d="M4063 4124 c-3 -8 -1 -20 5 -26 16 -16 42 -2 42 22 0 24 -38 28 -47
4z m32 -3 c3 -5 1 -12 -5 -16 -5 -3 -10 1 -10 9 0 18 6 21 15 7z"/>
<path d="M4120 4115 c0 -31 17 -33 23 -2 l4 22 2 -22 c2 -31 21 -29 21 2 0 20
-5 25 -25 25 -20 0 -25 -5 -25 -25z"/>
<path d="M2793 4053 c368 -2 966 -2 1330 0 364 1 64 2 -668 2 -731 0 -1029 -1
-662 -2z"/>
<path d="M2185 4010 c-3 -5 -1 -10 4 -10 6 0 11 -11 11 -25 0 -14 5 -25 10
-25 6 0 10 16 10 35 0 34 -20 49 -35 25z"/>
<path d="M2802 3993 c19 -45 27 -48 38 -17 6 16 17 32 23 36 8 5 7 8 -4 8 -10
0 -20 -12 -24 -27 l-8 -28 -10 28 c-6 15 -14 27 -19 27 -4 0 -2 -12 4 -27z"/>
<path d="M3040 3992 c0 -17 4 -34 10 -37 6 -4 7 6 3 27 -8 44 -13 48 -13 10z"/>
<path d="M3261 3989 c-1 -34 0 -36 34 -37 31 -1 35 1 35 23 0 20 -5 25 -22 24
-19 -1 -20 -2 -4 -6 17 -4 16 -6 -5 -17 -22 -11 -24 -10 -30 19 l-6 30 -2 -36z"/>
<path d="M2862 3975 c0 -16 2 -22 5 -12 2 9 2 23 0 30 -3 6 -5 -1 -5 -18z"/>
<path d="M2883 3975 c0 -17 5 -25 18 -25 24 0 34 19 14 26 -13 6 -14 8 -3 15
9 6 7 9 -8 9 -16 0 -21 -6 -21 -25z"/>
<path d="M2941 3978 c-1 -22 4 -28 19 -28 15 0 20 6 19 28 -2 23 -2 24 -6 5
-2 -13 -8 -23 -13 -23 -5 0 -11 10 -13 23 -4 19 -4 18 -6 -5z"/>
<path d="M2990 3975 c0 -18 5 -25 20 -25 15 0 20 7 20 25 0 18 -5 25 -20 25
-15 0 -20 -7 -20 -25z"/>
<path d="M3072 3975 c0 -16 2 -22 5 -12 2 9 2 23 0 30 -3 6 -5 -1 -5 -18z"/>
<path d="M3099 3991 c9 -6 10 -11 2 -15 -19 -12 -12 -26 12 -25 12 0 16 3 10
6 -9 3 -10 10 -3 24 9 16 7 19 -12 19 -17 0 -19 -3 -9 -9z"/>
<path d="M3149 3991 c9 -6 10 -11 2 -15 -23 -15 -9 -24 34 -24 41 0 45 2 45
24 0 19 -5 24 -22 23 -19 -1 -20 -2 -5 -6 16 -4 15 -7 -8 -19 -39 -20 -51 -17
-30 6 18 19 17 20 -6 20 -17 0 -20 -3 -10 -9z"/>
<path d="M2861 3858 c-1 -37 0 -38 34 -38 29 0 35 4 36 23 0 22 0 22 10 -2 7
-18 6 -27 -3 -33 -11 -6 -11 -8 0 -8 7 0 19 14 26 31 13 30 13 30 19 8 9 -33
16 -20 10 19 l-6 34 -17 -27 c-12 -18 -19 -22 -22 -13 -3 7 -19 14 -34 16 -22
1 -25 -1 -14 -8 13 -8 12 -10 -2 -10 -10 0 -19 -6 -19 -12 -1 -7 -5 3 -9 22
l-7 35 -2 -37z"/>
<path d="M3083 3866 c4 -10 7 -24 7 -32 0 -8 4 -14 8 -14 13 0 6 54 -8 58 -9
3 -11 -1 -7 -12z"/>
<path d="M2800 3833 c0 -21 4 -33 8 -27 4 6 15 13 25 17 25 9 17 41 -11 45
-19 3 -22 -1 -22 -35z m32 12 c0 -5 -5 -11 -11 -13 -6 -2 -11 4 -11 13 0 9 5
15 11 13 6 -2 11 -8 11 -13z"/>
<path d="M3012 3845 c0 -16 2 -22 5 -12 2 9 2 23 0 30 -3 6 -5 -1 -5 -18z"/>
<path d="M3033 3845 c0 -17 5 -25 18 -25 24 0 34 19 14 26 -13 6 -14 8 -3 15
9 6 7 9 -8 9 -16 0 -21 -6 -21 -25z"/>
<path d="M2793 3783 c368 -2 966 -2 1330 0 364 1 64 2 -668 2 -731 0 -1029 -1
-662 -2z"/>
<path d="M2180 3739 c0 -6 7 -9 15 -5 8 3 15 2 15 -3 0 -5 -7 -14 -15 -21 -23
-19 -18 -30 13 -30 20 0 23 3 13 9 -12 8 -12 12 -2 25 7 8 10 20 6 26 -8 13
-45 13 -45 -1z"/>
<path d="M3511 3713 c1 -25 3 -30 6 -15 4 19 7 21 19 11 10 -8 14 -8 14 0 0
20 19 11 23 -11 3 -14 5 -9 6 15 1 39 -12 48 -28 20 -9 -17 -10 -17 -16 0 -12
30 -25 19 -24 -20z"/>
<path d="M3841 3718 c-1 -37 0 -38 35 -38 31 0 35 3 32 22 -2 14 -11 24 -23
26 -17 3 -17 1 -5 -7 13 -9 13 -11 -2 -11 -10 0 -19 -6 -19 -12 -1 -7 -5 3 -9
22 l-7 35 -2 -37z"/>
<path d="M4041 3718 c-1 -21 4 -38 9 -38 6 0 10 9 10 20 0 27 18 25 23 -2 4
-20 4 -19 6 5 1 20 -4 27 -18 27 -11 0 -22 6 -24 13 -3 6 -6 -5 -6 -25z"/>
<path d="M3678 3732 c-32 -4 -36 -16 -10 -31 16 -10 16 -10 0 -11 -10 0 -22 9
-28 20 -16 29 -50 26 -50 -4 0 -22 4 -24 50 -24 52 0 63 10 33 27 -16 9 -16
10 5 11 15 0 22 -6 22 -20 0 -11 4 -20 8 -20 8 0 9 48 1 53 -2 1 -16 1 -31 -1z
m-58 -27 c0 -8 -4 -15 -10 -15 -5 0 -10 7 -10 15 0 8 5 15 10 15 6 0 10 -7 10
-15z"/>
<path d="M4328 3735 c-7 -7 3 -55 11 -55 8 0 7 47 -1 55 -2 3 -7 3 -10 0z"/>
<path d="M3731 3703 c1 -22 2 -23 6 -8 3 11 10 23 17 27 7 5 5 8 -6 8 -13 0
-18 -7 -17 -27z"/>
<path d="M3780 3721 c13 -9 13 -11 -2 -11 -10 0 -18 -7 -18 -15 0 -9 10 -15
26 -15 21 0 25 4 22 22 -2 14 -11 24 -23 26 -17 3 -17 1 -5 -7z"/>
<path d="M3943 3705 c0 -18 5 -25 18 -25 11 0 19 7 19 15 0 8 -6 15 -12 15 -9
0 -8 4 2 10 12 8 11 10 -6 10 -16 0 -21 -6 -21 -25z"/>
<path d="M3990 3705 c0 -18 5 -25 20 -25 11 0 20 4 20 10 0 5 -7 7 -15 4 -9
-4 -15 0 -15 9 0 9 8 18 18 20 13 4 11 5 -5 6 -18 1 -23 -4 -23 -24z"/>
<path d="M4100 3705 c0 -18 5 -25 20 -25 15 0 20 7 20 25 0 18 -5 25 -20 25
-15 0 -20 -7 -20 -25z"/>
<path d="M4150 3705 c0 -14 4 -25 9 -25 5 0 11 11 13 25 4 17 1 25 -8 25 -8 0
-14 -11 -14 -25z"/>
<path d="M4191 3703 c2 -24 2 -25 6 -5 2 12 8 22 13 22 5 0 11 -10 13 -22 l4
-23 2 23 c0 12 5 22 10 22 5 0 12 -10 14 -22 4 -20 4 -19 6 5 1 25 -2 27 -34
27 -32 0 -35 -2 -34 -27z"/>
<path d="M4290 3721 c13 -9 13 -11 -2 -11 -10 0 -18 -7 -18 -15 0 -9 10 -15
26 -15 21 0 25 4 22 22 -2 14 -11 24 -23 26 -17 3 -17 1 -5 -7z"/>
<path d="M4360 3705 c0 -18 5 -25 20 -25 15 0 20 7 20 25 0 18 -5 25 -20 25
-15 0 -20 -7 -20 -25z"/>
<path d="M3510 3598 c0 -4 7 -8 15 -8 8 0 15 4 15 8 0 5 -7 9 -15 9 -8 0 -15
-4 -15 -9z"/>
<path d="M3550 3575 c0 -19 5 -35 10 -35 6 0 10 6 10 14 0 7 9 16 20 19 14 4
20 0 20 -12 0 -13 9 -18 35 -19 31 -1 35 1 35 23 0 19 -5 25 -22 24 -19 0 -20
-2 -6 -7 15 -6 14 -9 -7 -19 -23 -10 -25 -9 -25 16 0 24 -4 27 -35 29 -34 3
-35 1 -35 -33z m40 15 c0 -5 -4 -10 -10 -10 -5 0 -10 5 -10 10 0 6 5 10 10 10
6 0 10 -4 10 -10z"/>
<path d="M3725 3584 c-17 -23 -20 -24 -26 -7 -4 11 -6 4 -6 -19 2 -47 11 -48
28 -5 11 28 13 29 16 10 4 -18 11 -21 49 -21 46 0 56 10 27 27 -16 9 -16 10 5
11 15 0 22 -6 22 -20 0 -11 4 -20 8 -20 4 0 7 12 6 28 -1 24 -4 27 -30 24 -39
-5 -43 -11 -20 -28 18 -13 18 -14 2 -14 -10 0 -20 9 -23 20 -7 27 -23 25 -24
-2 -1 -16 -4 -13 -8 10 l-6 33 -20 -27z"/>
<path d="M3871 3573 c1 -21 3 -30 6 -21 2 9 12 19 21 21 15 4 15 5 0 6 -26 2
-22 19 5 24 19 4 18 4 -5 6 -26 1 -28 -2 -27 -36z"/>
<path d="M4290 3601 c0 -10 26 -9 36 2 4 4 -2 7 -14 7 -12 0 -22 -4 -22 -9z"/>
<path d="M4028 3593 c-9 -2 -19 -16 -21 -31 l-4 -27 -2 28 c-1 21 -6 27 -23
26 -21 0 -22 -1 -4 -8 19 -7 19 -8 -3 -14 -26 -7 -20 -27 9 -27 10 0 22 -4 25
-10 10 -16 45 -12 45 5 0 8 -8 15 -17 15 -15 0 -15 2 -4 9 8 5 16 17 17 25 1
9 2 15 1 15 -1 -1 -10 -3 -19 -6z"/>
<path d="M4258 3595 c-7 -7 3 -55 11 -55 8 0 7 47 -1 55 -2 3 -7 3 -10 0z"/>
<path d="M3930 3565 c0 -14 2 -25 4 -25 2 0 6 11 8 25 3 14 1 25 -3 25 -5 0
-9 -11 -9 -25z"/>
<path d="M4061 3562 c2 -23 2 -24 6 -4 2 12 8 22 13 22 5 0 11 -10 13 -22 l4
-23 2 23 c1 26 21 30 21 4 0 -14 8 -19 35 -20 30 -1 35 2 35 22 0 22 -4 23
-65 24 -65 1 -65 1 -64 -26z"/>
<path d="M4201 3563 c2 -24 2 -25 6 -5 2 12 8 22 13 22 5 0 11 -10 13 -22 4
-20 4 -19 6 5 1 21 -4 27 -19 27 -15 0 -20 -6 -19 -27z"/>
<path d="M2793 3393 c368 -2 966 -2 1330 0 364 1 64 2 -668 2 -731 0 -1029 -1
-662 -2z"/>
<path d="M2180 3350 c0 -7 6 -10 14 -7 9 4 14 -2 14 -18 0 -16 -5 -22 -14 -18
-8 3 -14 0 -14 -7 0 -6 10 -10 23 -8 17 2 22 10 22 33 0 23 -5 31 -22 33 -13
2 -23 -2 -23 -8z"/>
<path d="M2804 3346 c-3 -8 -4 -23 -2 -33 4 -22 49 -25 55 -3 4 12 3 13 -5 1
-13 -19 -44 -6 -40 16 2 11 12 18 26 17 12 0 22 3 22 8 0 14 -50 9 -56 -6z"/>
<path d="M2870 3325 c0 -19 4 -35 8 -35 4 0 6 16 4 35 -2 19 -6 35 -8 35 -2 0
-4 -16 -4 -35z"/>
<path d="M3210 3325 c0 -19 4 -35 8 -35 4 0 6 16 4 35 -2 19 -6 35 -8 35 -2 0
-4 -16 -4 -35z"/>
<path d="M2902 3315 c0 -16 2 -22 5 -12 2 9 2 23 0 30 -3 6 -5 -1 -5 -18z"/>
<path d="M2920 3315 c0 -18 5 -25 20 -25 11 0 20 4 20 10 0 5 -7 7 -15 4 -9
-4 -15 0 -15 9 0 9 8 18 18 20 13 4 11 5 -5 6 -18 1 -23 -4 -23 -24z"/>
<path d="M2974 3325 c-9 -24 3 -32 51 -33 41 0 45 2 45 24 0 19 -5 24 -22 23
-20 -1 -21 -2 -4 -6 17 -4 14 -8 -13 -19 -32 -14 -51 -11 -51 6 0 5 10 11 23
13 l22 4 -23 2 c-12 0 -25 -6 -28 -14z"/>
<path d="M3103 3316 c0 -22 4 -24 48 -24 45 0 49 2 49 24 0 30 -17 31 -23 2
-4 -23 -4 -23 -15 2 -7 18 -11 20 -11 8 -1 -12 -6 -15 -17 -11 -13 5 -13 7 -2
14 9 6 7 9 -8 9 -16 0 -21 -6 -21 -24z"/>
<path d="M2911 3199 l-1 -36 60 -1 c57 -1 60 1 60 24 0 18 -5 24 -22 23 -21 0
-22 -1 -4 -8 19 -7 19 -8 -3 -14 -13 -3 -30 -3 -39 0 -13 6 -13 8 4 14 17 7
17 8 -3 8 -27 1 -30 -14 -5 -29 15 -9 14 -10 -8 -8 -19 2 -27 10 -31 33 -6 30
-6 30 -8 -6z"/>
<path d="M3098 3215 c-7 -7 3 -55 11 -55 8 0 7 47 -1 55 -2 3 -7 3 -10 0z"/>
<path d="M2800 3173 c0 -27 3 -34 10 -23 6 9 23 14 49 13 37 -2 41 0 41 23 0
30 -17 32 -23 2 -4 -22 -5 -22 -11 -3 -5 14 -17 22 -37 23 -27 2 -29 0 -29
-35z m32 12 c0 -5 -5 -11 -11 -13 -6 -2 -11 4 -11 13 0 9 5 15 11 13 6 -2 11
-8 11 -13z"/>
<path d="M3041 3183 c2 -24 2 -25 6 -5 2 12 8 22 13 22 5 0 11 -10 13 -22 4
-20 4 -19 6 5 1 21 -4 27 -19 27 -15 0 -20 -6 -19 -27z"/>
<path d="M3130 3185 c0 -18 5 -25 20 -25 15 0 20 7 20 25 0 18 -5 25 -20 25
-15 0 -20 -7 -20 -25z"/>
<path d="M2847 3073 c-2 -10 -8 -26 -12 -36 -7 -17 -6 -18 14 -5 18 11 23 11
31 -2 13 -20 13 1 0 34 -11 30 -25 34 -33 9z m23 -13 c0 -5 -5 -10 -11 -10 -5
0 -7 5 -4 10 3 6 8 10 11 10 2 0 4 -4 4 -10z"/>
<path d="M2988 3080 c-9 -6 -25 -9 -35 -8 -46 4 -53 -1 -53 -36 0 -34 1 -34
44 -34 52 0 67 13 64 57 -1 17 -2 31 -3 31 0 0 -7 -5 -17 -10z m-38 -35 c0
-19 -4 -23 -17 -18 -11 4 -12 8 -5 11 7 2 12 10 12 18 0 8 2 14 5 14 3 0 5
-11 5 -25z m50 0 c0 -19 -4 -23 -17 -18 -11 4 -12 8 -5 11 7 2 12 10 12 18 0
8 2 14 5 14 3 0 5 -11 5 -25z"/>
<path d="M3160 3076 c-25 -14 -36 -61 -18 -73 18 -10 58 19 58 44 0 13 -4 23
-10 23 -5 0 -10 -9 -10 -20 0 -12 -7 -20 -17 -20 -10 0 -14 4 -8 8 9 7 38 52
33 52 -2 -1 -14 -7 -28 -14z m7 -62 c-3 -3 -12 -4 -19 -1 -8 3 -5 6 6 6 11 1
17 -2 13 -5z"/>
<path d="M3023 3050 c1 -17 9 -26 25 -28 18 -3 22 1 22 22 0 32 -17 34 -23 4
-4 -23 -4 -23 -15 2 l-12 25 3 -25z"/>
<path d="M3081 3043 c2 -24 2 -25 6 -5 2 12 8 22 13 22 5 0 11 -10 13 -22 4
-20 4 -19 6 5 1 21 -4 27 -19 27 -15 0 -20 -6 -19 -27z"/>
<path d="M3231 3048 c-1 -22 4 -28 19 -28 15 0 20 6 19 28 -2 23 -2 24 -6 5
-2 -13 -8 -23 -13 -23 -5 0 -11 10 -13 23 -4 19 -4 18 -6 -5z"/>
<path d="M3280 3045 c0 -14 5 -25 10 -25 6 0 10 9 10 20 0 27 18 25 23 -2 4
-20 4 -19 6 5 1 23 -3 27 -24 27 -20 0 -25 -5 -25 -25z"/>
<path d="M3340 3045 c0 -18 5 -25 20 -25 15 0 20 7 20 25 0 18 -5 25 -20 25
-15 0 -20 -7 -20 -25z"/>
<path d="M3170 2950 c0 -5 9 -10 20 -10 11 0 20 5 20 10 0 6 -9 10 -20 10 -11
0 -20 -4 -20 -10z"/>
<path d="M2800 2915 c0 -18 5 -25 20 -25 11 0 20 4 20 10 0 5 -7 7 -15 4 -9
-4 -15 0 -15 9 0 9 8 18 18 20 13 4 11 5 -5 6 -18 1 -23 -4 -23 -24z"/>
<path d="M2870 2931 c13 -9 13 -11 -2 -11 -10 0 -18 -7 -18 -15 0 -9 10 -15
26 -15 21 0 25 4 22 22 -2 14 -11 24 -23 26 -17 3 -17 1 -5 -7z"/>
<path d="M2911 2913 c2 -24 2 -25 6 -5 2 12 8 22 13 22 5 0 11 -10 13 -22 4
-20 4 -19 6 5 1 21 -4 27 -19 27 -15 0 -20 -6 -19 -27z"/>
<path d="M2969 2931 c9 -6 10 -11 2 -15 -23 -15 -9 -24 34 -24 41 0 45 2 45
24 0 31 -39 34 -47 4 -3 -11 -9 -20 -15 -20 -5 0 -4 9 2 20 9 17 8 20 -12 20
-17 0 -19 -3 -9 -9z m71 -16 c0 -8 -4 -15 -10 -15 -5 0 -10 7 -10 15 0 8 5 15
10 15 6 0 10 -7 10 -15z"/>
<path d="M3060 2915 c0 -14 5 -25 10 -25 6 0 10 9 10 20 0 27 18 25 23 -2 4
-20 4 -19 6 5 1 23 -3 27 -24 27 -20 0 -25 -5 -25 -25z"/>
<path d="M3120 2915 c0 -18 5 -25 20 -25 15 0 20 7 20 25 0 18 -5 25 -20 25
-15 0 -20 -7 -20 -25z"/>
<path d="M2793 2733 c368 -2 966 -2 1330 0 364 1 64 2 -668 2 -731 0 -1029 -1
-662 -2z"/>
<path d="M2190 2675 c-15 -28 -13 -32 15 -37 11 -2 20 2 19 10 -1 6 -2 21 -2
32 -3 27 -16 25 -32 -5z"/>
<path d="M3511 2663 c1 -25 3 -30 6 -15 4 19 7 21 19 11 10 -8 14 -8 14 0 0
20 19 11 23 -11 3 -14 5 -9 6 15 1 39 -12 48 -28 20 -9 -17 -10 -17 -16 0 -12
30 -25 19 -24 -20z"/>
<path d="M3841 2668 c-1 -37 0 -38 35 -38 31 0 35 3 32 22 -2 14 -11 24 -23
26 -17 3 -17 1 -5 -7 13 -9 13 -11 -2 -11 -10 0 -19 -6 -19 -12 -1 -7 -5 3 -9
22 l-7 35 -2 -37z"/>
<path d="M4041 2668 c-1 -21 4 -38 9 -38 6 0 10 9 10 20 0 27 18 25 23 -2 4
-20 4 -19 6 5 1 20 -4 27 -18 27 -11 0 -22 6 -24 13 -3 6 -6 -5 -6 -25z"/>
<path d="M3678 2682 c-32 -4 -36 -16 -10 -31 16 -10 16 -10 0 -11 -10 0 -22 9
-28 20 -16 29 -50 26 -50 -4 0 -22 4 -24 50 -24 52 0 63 10 33 27 -16 9 -16
10 5 11 15 0 22 -6 22 -20 0 -11 4 -20 8 -20 8 0 9 48 1 53 -2 1 -16 1 -31 -1z
m-58 -27 c0 -8 -4 -15 -10 -15 -5 0 -10 7 -10 15 0 8 5 15 10 15 6 0 10 -7 10
-15z"/>
<path d="M4328 2685 c-7 -7 3 -55 11 -55 8 0 7 47 -1 55 -2 3 -7 3 -10 0z"/>
<path d="M3731 2653 c1 -22 2 -23 6 -8 3 11 10 23 17 27 7 5 5 8 -6 8 -13 0
-18 -7 -17 -27z"/>
<path d="M3780 2671 c13 -9 13 -11 -2 -11 -10 0 -18 -7 -18 -15 0 -9 10 -15
26 -15 21 0 25 4 22 22 -2 14 -11 24 -23 26 -17 3 -17 1 -5 -7z"/>
<path d="M3943 2655 c0 -18 5 -25 18 -25 11 0 19 7 19 15 0 8 -6 15 -12 15 -9
0 -8 4 2 10 12 8 11 10 -6 10 -16 0 -21 -6 -21 -25z"/>
<path d="M3990 2655 c0 -18 5 -25 20 -25 11 0 20 4 20 10 0 5 -7 7 -15 4 -9
-4 -15 0 -15 9 0 9 8 18 18 20 13 4 11 5 -5 6 -18 1 -23 -4 -23 -24z"/>
<path d="M4100 2655 c0 -18 5 -25 20 -25 15 0 20 7 20 25 0 18 -5 25 -20 25
-15 0 -20 -7 -20 -25z"/>
<path d="M4150 2655 c0 -14 4 -25 9 -25 5 0 11 11 13 25 4 17 1 25 -8 25 -8 0
-14 -11 -14 -25z"/>
<path d="M4191 2653 c2 -24 2 -25 6 -5 2 12 8 22 13 22 5 0 11 -10 13 -22 l4
-23 2 23 c0 12 5 22 10 22 5 0 12 -10 14 -22 4 -20 4 -19 6 5 1 25 -2 27 -34
27 -32 0 -35 -2 -34 -27z"/>
<path d="M4290 2671 c13 -9 13 -11 -2 -11 -10 0 -18 -7 -18 -15 0 -9 10 -15
26 -15 21 0 25 4 22 22 -2 14 -11 24 -23 26 -17 3 -17 1 -5 -7z"/>
<path d="M4360 2655 c0 -18 5 -25 20 -25 15 0 20 7 20 25 0 18 -5 25 -20 25
-15 0 -20 -7 -20 -25z"/>
<path d="M3510 2558 c0 -4 7 -8 15 -8 8 0 15 4 15 8 0 5 -7 9 -15 9 -8 0 -15
-4 -15 -9z"/>
<path d="M3550 2554 c0 -9 9 -18 20 -21 11 -3 20 -10 20 -15 0 -6 -9 -8 -20
-5 -11 3 -20 1 -20 -4 0 -5 11 -9 25 -9 18 0 25 5 25 20 0 11 -6 20 -14 20 -8
0 -18 5 -22 12 -5 8 0 9 14 6 12 -4 22 -2 22 3 0 5 -11 9 -25 9 -16 0 -25 -6
-25 -16z"/>
<path d="M3812 2535 c0 -22 3 -30 5 -17 2 12 8 22 13 22 5 0 11 -10 13 -22 4
-20 4 -19 6 5 1 17 -4 27 -13 27 -8 0 -17 6 -19 13 -3 6 -5 -6 -5 -28z"/>
<path d="M3860 2535 c0 -19 5 -35 10 -35 6 0 10 6 10 14 0 8 8 17 18 19 16 4
16 5 0 6 -10 0 -18 5 -18 10 0 5 8 12 18 14 10 3 6 5 -10 6 -25 1 -28 -2 -28
-34z"/>
<path d="M4280 2560 c0 -5 9 -10 20 -10 11 0 20 5 20 10 0 6 -9 10 -20 10 -11
0 -20 -4 -20 -10z"/>
<path d="M4018 2553 c-26 -6 -25 -73 0 -73 23 0 42 19 42 42 0 26 18 22 23 -4
l4 -23 2 23 c1 27 21 30 21 2 0 -11 5 -20 10 -20 15 0 12 40 -2 44 -25 8 -83
13 -100 9z m32 -28 c0 -19 -4 -23 -17 -18 -11 4 -12 8 -5 11 7 2 12 10 12 18
0 8 2 14 5 14 3 0 5 -11 5 -25z"/>
<path d="M4250 2530 c0 -22 5 -30 18 -30 13 0 14 2 3 9 -8 5 -11 16 -6 30 4
12 2 21 -4 21 -6 0 -11 -13 -11 -30z"/>
<path d="M3610 2525 c0 -18 5 -25 20 -25 15 0 20 7 20 25 0 18 -5 25 -20 25
-15 0 -20 -7 -20 -25z"/>
<path d="M3684 2541 c19 -7 19 -8 -3 -14 -27 -7 -19 -27 10 -27 14 0 19 7 19
25 0 19 -5 25 -22 24 -21 0 -22 -1 -4 -8z"/>
<path d="M3721 2521 c2 -23 2 -24 6 -3 5 27 19 29 26 2 5 -20 31 -27 41 -11 3
5 -2 8 -11 7 -25 -2 -27 22 -1 27 13 2 4 4 -19 4 -40 1 -43 -1 -42 -26z"/>
<path d="M3920 2525 c0 -14 2 -25 4 -25 2 0 6 11 8 25 3 14 1 25 -3 25 -5 0
-9 -11 -9 -25z"/>
<path d="M3950 2525 c0 -18 5 -25 20 -25 15 0 20 7 20 25 0 18 -5 25 -20 25
-15 0 -20 -7 -20 -25z"/>
<path d="M4140 2525 c0 -18 5 -25 20 -25 15 0 20 7 20 25 0 18 -5 25 -20 25
-15 0 -20 -7 -20 -25z"/>
<path d="M4190 2525 c0 -14 5 -25 10 -25 6 0 10 9 10 20 0 27 18 25 23 -2 4
-20 4 -19 6 5 1 23 -3 27 -24 27 -20 0 -25 -5 -25 -25z"/>
<path d="M2793 2343 c368 -2 966 -2 1330 0 364 1 64 2 -668 2 -731 0 -1029 -1
-662 -2z"/>
<path d="M2180 2290 c0 -11 7 -20 15 -20 8 0 15 -4 15 -10 0 -5 -7 -7 -15 -4
-8 4 -15 1 -15 -5 0 -6 9 -11 20 -11 28 0 38 29 16 46 -16 12 -16 13 1 17 12
3 9 5 -9 6 -22 1 -28 -4 -28 -19z"/>
<path d="M2800 2294 c0 -9 9 -18 20 -21 11 -3 20 -10 20 -15 0 -6 -9 -8 -20
-5 -11 3 -20 1 -20 -4 0 -5 11 -9 25 -9 18 0 25 5 25 20 0 11 -6 20 -14 20 -8
0 -18 5 -22 12 -5 8 0 9 14 6 12 -4 22 -2 22 3 0 5 -11 9 -25 9 -16 0 -25 -6
-25 -16z"/>
<path d="M3120 2275 c0 -19 4 -35 8 -35 4 0 6 16 4 35 -2 19 -6 35 -8 35 -2 0
-4 -16 -4 -35z"/>
<path d="M3310 2275 c0 -19 4 -35 8 -35 4 0 6 16 4 35 -2 19 -6 35 -8 35 -2 0
-4 -16 -4 -35z"/>
<path d="M3163 2286 c4 -10 7 -24 7 -32 0 -8 4 -14 8 -14 13 0 6 54 -8 58 -9
3 -11 -1 -7 -12z"/>
<path d="M3220 2270 c0 -27 2 -29 38 -27 30 2 38 6 40 25 3 17 -2 22 -18 22
-13 0 -24 -8 -27 -20 -3 -11 -10 -20 -15 -20 -6 0 -7 11 -4 25 4 14 2 25 -4
25 -5 0 -10 -13 -10 -30z m70 -6 c0 -17 -22 -14 -28 4 -2 7 3 12 12 12 9 0 16
-7 16 -16z"/>
<path d="M2860 2265 c0 -18 5 -25 20 -25 11 0 20 4 20 10 0 5 -7 7 -15 4 -9
-4 -15 0 -15 9 0 9 8 18 18 20 13 4 11 5 -5 6 -18 1 -23 -4 -23 -24z"/>
<path d="M2910 2265 c0 -14 4 -25 9 -25 5 0 11 11 13 25 4 17 1 25 -8 25 -8 0
-14 -11 -14 -25z"/>
<path d="M2951 2263 l1 -28 7 25 7 25 8 -22 c9 -27 26 -30 26 -5 1 16 1 16 11
0 16 -28 49 -23 49 8 0 22 -4 25 -27 22 -16 -2 -33 -10 -40 -18 -11 -13 -12
-13 -13 3 0 9 -7 17 -15 17 -10 0 -15 -9 -14 -27z"/>
<path d="M3090 2265 c0 -14 5 -25 10 -25 6 0 10 11 10 25 0 14 -4 25 -10 25
-5 0 -10 -11 -10 -25z"/>
<path d="M3202 2265 c0 -16 2 -22 5 -12 2 9 2 23 0 30 -3 6 -5 -1 -5 -18z"/>
<path d="M3334 2275 c-8 -20 4 -35 27 -35 14 0 19 7 19 25 0 18 -5 25 -20 25
-11 0 -23 -7 -26 -15z m36 -10 c0 -8 -4 -15 -10 -15 -5 0 -10 7 -10 15 0 8 5
15 10 15 6 0 10 -7 10 -15z"/>
<path d="M2830 2170 c0 -5 -7 -10 -15 -10 -9 0 -15 -9 -15 -24 0 -23 4 -25 50
-24 47 0 50 2 50 25 0 22 -4 25 -25 21 -17 -4 -25 -1 -25 8 0 8 -4 14 -10 14
-5 0 -10 -4 -10 -10z m0 -35 c0 -8 -4 -15 -10 -15 -5 0 -10 7 -10 15 0 8 5 15
10 15 6 0 10 -7 10 -15z"/>
<path d="M2911 2148 c-1 -32 2 -38 19 -38 17 0 19 5 13 33 -8 44 -13 46 -14 6
l-2 -34 -7 35 -7 35 -2 -37z"/>
<path d="M2980 2151 c13 -9 13 -11 -2 -11 -10 0 -18 -7 -18 -15 0 -9 10 -15
26 -15 21 0 25 4 22 22 -2 14 -11 24 -23 26 -17 3 -17 1 -5 -7z"/>
<path d="M3252 2005 c0 -22 3 -30 5 -17 2 12 8 22 13 22 5 0 11 -10 13 -22 4
-20 4 -19 6 5 1 17 -4 27 -13 27 -8 0 -17 6 -19 13 -3 6 -5 -6 -5 -28z"/>
<path d="M2800 1995 c0 -18 5 -25 20 -25 11 0 20 4 20 10 0 5 -7 7 -15 4 -9
-4 -15 0 -15 9 0 9 8 18 18 20 13 4 11 5 -5 6 -18 1 -23 -4 -23 -24z"/>
<path d="M2870 2011 c13 -9 13 -11 -2 -11 -10 0 -18 -7 -18 -15 0 -9 10 -15
26 -15 21 0 25 4 22 22 -2 14 -11 24 -23 26 -17 3 -17 1 -5 -7z"/>
<path d="M2911 1993 c2 -24 2 -25 6 -5 2 12 8 22 13 22 5 0 11 -10 13 -22 4
-20 4 -19 6 5 1 21 -4 27 -19 27 -15 0 -20 -6 -19 -27z"/>
<path d="M2969 2011 c9 -6 10 -11 2 -15 -23 -15 -9 -24 34 -24 41 0 45 2 45
24 0 31 -39 34 -47 4 -3 -11 -9 -20 -15 -20 -5 0 -4 9 2 20 9 17 8 20 -12 20
-17 0 -19 -3 -9 -9z m71 -16 c0 -8 -4 -15 -10 -15 -5 0 -10 7 -10 15 0 8 5 15
10 15 6 0 10 -7 10 -15z"/>
<path d="M3060 1995 c0 -14 5 -25 10 -25 6 0 10 9 10 20 0 27 18 25 23 -2 4
-20 4 -19 6 5 1 23 -3 27 -24 27 -20 0 -25 -5 -25 -25z"/>
<path d="M3120 1995 c0 -18 5 -25 20 -25 15 0 20 7 20 25 0 18 -5 25 -20 25
-15 0 -20 -7 -20 -25z"/>
<path d="M3194 2005 c-11 -27 25 -50 40 -26 3 5 -2 8 -11 7 -25 -2 -27 22 -1
27 l23 4 -23 2 c-12 0 -25 -6 -28 -14z"/>
<path d="M3304 2005 c-4 -9 -2 -21 4 -27 15 -15 44 -1 40 19 -4 23 -36 29 -44
8z m33 -21 c-3 -3 -12 -4 -19 -1 -8 3 -5 6 6 6 11 1 17 -2 13 -5z"/>
<path d="M2961 1878 c-1 -35 0 -36 32 -35 25 2 32 6 32 22 0 29 -35 32 -43 3
-6 -21 -7 -20 -13 12 l-6 35 -2 -37z m56 -24 c-3 -3 -12 -4 -19 -1 -8 3 -5 6
6 6 11 1 17 -2 13 -5z"/>
<path d="M2802 1865 c14 -31 23 -32 33 -2 l8 22 4 -22 c3 -15 12 -23 24 -23
14 0 19 7 18 28 -2 23 -2 24 -6 5 -5 -28 -23 -30 -23 -3 0 25 -18 26 -36 3
-13 -17 -13 -17 -14 0 0 9 -4 17 -10 17 -6 0 -5 -10 2 -25z"/>
<path d="M2903 1874 c-3 -8 -1 -20 5 -26 16 -16 42 -2 42 22 0 24 -38 28 -47
4z m37 -10 c0 -17 -22 -14 -28 4 -2 7 3 12 12 12 9 0 16 -7 16 -16z"/>
<path d="M2938 1770 c-9 -6 -25 -9 -35 -8 -46 4 -53 -1 -53 -36 0 -34 1 -34
44 -34 52 0 67 13 64 57 -1 17 -2 31 -3 31 0 0 -7 -5 -17 -10z m-38 -35 c0
-19 -4 -23 -17 -18 -11 4 -12 8 -5 11 7 2 12 10 12 18 0 8 2 14 5 14 3 0 5
-11 5 -25z m50 0 c0 -19 -4 -23 -17 -18 -11 4 -12 8 -5 11 7 2 12 10 12 18 0
8 2 14 5 14 3 0 5 -11 5 -25z"/>
<path d="M3100 1760 c-19 -12 -21 -60 -2 -68 8 -3 20 1 26 9 6 8 20 14 31 14
13 0 20 7 20 20 0 28 -35 33 -42 6 -3 -12 -13 -21 -22 -21 -10 0 -12 3 -5 8
13 9 26 42 16 42 -4 0 -14 -4 -22 -10z m67 -36 c-3 -3 -12 -4 -19 -1 -8 3 -5
6 6 6 11 1 17 -2 13 -5z m-50 -20 c-3 -3 -12 -4 -19 -1 -8 3 -5 6 6 6 11 1 17
-2 13 -5z"/>
<path d="M2800 1735 c0 -18 5 -25 20 -25 15 0 20 7 20 25 0 18 -5 25 -20 25
-15 0 -20 -7 -20 -25z"/>
<path d="M2973 1740 c1 -17 9 -26 25 -28 18 -3 22 1 22 22 0 32 -17 34 -23 4
-4 -23 -4 -23 -15 2 l-12 25 3 -25z"/>
<path d="M3031 1733 c2 -24 2 -25 6 -5 2 12 8 22 13 22 5 0 11 -10 13 -22 4
-20 4 -19 6 5 1 21 -4 27 -19 27 -15 0 -20 -6 -19 -27z"/>
<path d="M3190 1735 c0 -14 2 -25 4 -25 2 0 6 11 8 25 3 14 1 25 -3 25 -5 0
-9 -11 -9 -25z"/>
<path d="M3220 1735 c0 -18 5 -25 20 -25 15 0 20 7 20 25 0 18 -5 25 -20 25
-15 0 -20 -7 -20 -25z"/>
<path d="M2850 1612 c0 -17 4 -34 10 -37 6 -4 7 6 3 27 -8 44 -13 48 -13 10z"/>
<path d="M2881 1609 c-1 -34 0 -36 34 -37 31 -1 35 1 35 23 0 20 -5 25 -22 24
-19 -1 -20 -2 -4 -6 17 -4 16 -6 -5 -17 -22 -11 -24 -10 -30 19 l-6 30 -2 -36z"/>
<path d="M3041 1608 c-1 -37 0 -38 34 -38 29 0 35 4 36 23 0 22 0 22 10 -2 7
-18 6 -27 -3 -33 -10 -7 -10 -9 2 -6 8 3 20 20 27 39 12 29 12 32 -1 16 -10
-13 -15 -14 -19 -5 -2 8 -18 14 -33 16 -22 1 -25 -1 -14 -8 13 -8 12 -10 -2
-10 -10 0 -19 -6 -19 -12 -1 -7 -5 3 -9 22 l-7 35 -2 -37z"/>
<path d="M3171 1608 c-1 -38 -1 -38 38 -38 42 0 63 16 36 26 -13 6 -14 8 -3
15 9 6 2 9 -19 9 -27 0 -33 -4 -34 -22 -1 -15 -4 -11 -9 12 l-7 35 -2 -37z
m64 -26 c-3 -3 -11 0 -18 7 -9 10 -8 11 6 5 10 -3 15 -9 12 -12z"/>
<path d="M3268 1625 c-7 -7 3 -55 11 -55 8 0 7 47 -1 55 -2 3 -7 3 -10 0z"/>
<path d="M2800 1595 c0 -18 5 -25 20 -25 15 0 20 7 20 25 0 18 -5 25 -20 25
-15 0 -20 -7 -20 -25z"/>
<path d="M2980 1583 c0 -21 4 -33 8 -27 4 6 15 13 25 17 25 9 17 41 -11 45
-19 3 -22 -1 -22 -35z m32 12 c0 -5 -5 -11 -11 -13 -6 -2 -11 4 -11 13 0 9 5
15 11 13 6 -2 11 -8 11 -13z"/>
<path d="M2793 1533 c368 -2 966 -2 1330 0 364 1 64 2 -668 2 -731 0 -1029 -1
-662 -2z"/>
<path d="M2184 1486 c-10 -26 1 -51 21 -51 11 0 21 8 23 18 2 10 -3 17 -12 17
-9 0 -16 4 -16 10 0 5 7 6 17 3 11 -4 14 -3 9 5 -10 17 -36 15 -42 -2z"/>
<path d="M3511 1463 c1 -25 3 -30 6 -15 4 19 7 21 19 11 10 -8 14 -8 14 0 0
20 19 11 23 -11 3 -14 5 -9 6 15 1 39 -12 48 -28 20 -9 -17 -10 -17 -16 0 -12
30 -25 19 -24 -20z"/>
<path d="M3841 1468 c-1 -37 0 -38 35 -38 31 0 35 3 32 22 -2 14 -11 24 -23
26 -17 3 -17 1 -5 -7 13 -9 13 -11 -2 -11 -10 0 -19 -6 -19 -12 -1 -7 -5 3 -9
22 l-7 35 -2 -37z"/>
<path d="M3678 1482 c-32 -4 -36 -16 -10 -31 16 -10 16 -10 0 -11 -10 0 -22 9
-28 20 -16 29 -50 26 -50 -4 0 -22 4 -24 50 -24 52 0 63 10 33 27 -16 9 -16
10 5 11 15 0 22 -6 22 -20 0 -11 4 -20 8 -20 8 0 9 48 1 53 -2 1 -16 1 -31 -1z
m-58 -27 c0 -8 -4 -15 -10 -15 -5 0 -10 7 -10 15 0 8 5 15 10 15 6 0 10 -7 10
-15z"/>
<path d="M4638 1485 c-7 -7 3 -55 11 -55 8 0 7 47 -1 55 -2 3 -7 3 -10 0z"/>
<path d="M3731 1453 c1 -22 2 -23 6 -8 3 11 10 23 17 27 7 5 5 8 -6 8 -13 0
-18 -7 -17 -27z"/>
<path d="M3780 1471 c13 -9 13 -11 -2 -11 -10 0 -18 -7 -18 -15 0 -9 10 -15
26 -15 21 0 25 4 22 22 -2 14 -11 24 -23 26 -17 3 -17 1 -5 -7z"/>
<path d="M3940 1455 c0 -18 5 -25 20 -25 11 0 20 4 20 10 0 5 -7 7 -15 4 -9
-4 -15 0 -15 9 0 9 8 18 18 20 13 4 11 5 -5 6 -18 1 -23 -4 -23 -24z"/>
<path d="M4010 1471 c13 -9 13 -11 -2 -11 -10 0 -18 -7 -18 -15 0 -9 10 -15
26 -15 21 0 25 4 22 22 -2 14 -11 24 -23 26 -17 3 -17 1 -5 -7z"/>
<path d="M4051 1453 c2 -24 2 -25 6 -5 2 12 8 22 13 22 5 0 11 -10 13 -22 4
-20 4 -19 6 5 1 21 -4 27 -19 27 -15 0 -20 -6 -19 -27z"/>
<path d="M4109 1470 c9 -5 10 -10 2 -14 -23 -15 -9 -24 34 -24 40 0 45 2 45
23 0 21 -4 23 -47 23 -27 0 -41 -3 -34 -8z m31 -15 c0 -8 -7 -15 -16 -15 -14
0 -14 3 -4 15 7 8 14 15 16 15 2 0 4 -7 4 -15z m40 0 c0 -8 -4 -15 -10 -15 -5
0 -10 7 -10 15 0 8 5 15 10 15 6 0 10 -7 10 -15z"/>
<path d="M4200 1454 c0 -13 5 -24 10 -24 6 0 10 9 10 20 0 11 5 20 10 20 6 0
10 -8 10 -18 0 -13 9 -18 30 -20 26 -2 30 1 30 22 0 22 -4 24 -50 24 -46 1
-50 -1 -50 -24z"/>
<path d="M4330 1455 c0 -14 4 -25 9 -25 5 0 11 11 13 25 4 17 1 25 -8 25 -8 0
-14 -11 -14 -25z"/>
<path d="M4372 1455 c0 -16 2 -22 5 -12 2 9 2 23 0 30 -3 6 -5 -1 -5 -18z"/>
<path d="M4390 1455 c0 -18 5 -25 20 -25 11 0 20 4 20 10 0 5 -7 7 -15 4 -9
-4 -15 0 -15 9 0 9 8 18 18 20 13 4 11 5 -5 6 -18 1 -23 -4 -23 -24z"/>
<path d="M4444 1465 c-4 -9 -2 -21 4 -27 15 -15 44 -1 40 19 -4 23 -36 29 -44
8z m33 -21 c-3 -3 -12 -4 -19 -1 -8 3 -5 6 6 6 11 1 17 -2 13 -5z"/>
<path d="M4500 1455 c0 -14 2 -25 4 -25 2 0 6 11 8 25 3 14 1 25 -3 25 -5 0
-9 -11 -9 -25z"/>
<path d="M4530 1455 c0 -18 5 -25 20 -25 11 0 20 4 20 10 0 5 -7 7 -15 4 -9
-4 -15 0 -15 9 0 9 8 18 18 20 13 4 11 5 -5 6 -18 1 -23 -4 -23 -24z"/>
<path d="M4600 1471 c13 -9 13 -11 -2 -11 -10 0 -18 -7 -18 -15 0 -9 10 -15
26 -15 21 0 25 4 22 22 -2 14 -11 24 -23 26 -17 3 -17 1 -5 -7z"/>
<path d="M4670 1455 c0 -18 5 -25 20 -25 15 0 20 7 20 25 0 18 -5 25 -20 25
-15 0 -20 -7 -20 -25z"/>
<path d="M3567 1339 c-13 -29 -15 -31 -16 -11 -1 18 -6 23 -23 20 -37 -5 -30
-42 7 -46 26 -2 33 2 42 25 l11 28 1 -28 c1 -23 5 -28 24 -25 28 4 30 41 2 47
-11 2 -23 8 -27 14 -3 6 -13 -4 -21 -24z m53 -14 c0 -8 -4 -15 -10 -15 -5 0
-10 7 -10 15 0 8 5 15 10 15 6 0 10 -7 10 -15z"/>
<path d="M4060 1335 c0 -19 4 -35 8 -35 4 0 6 16 4 35 -2 19 -6 35 -8 35 -2 0
-4 -16 -4 -35z"/>
<path d="M3670 1340 c0 -5 8 -14 18 -20 15 -10 14 -11 -6 -7 -12 3 -20 1 -16
-4 7 -12 44 -11 44 1 0 6 -8 14 -17 17 -15 6 -15 7 3 14 17 7 17 8 -3 8 -13 1
-23 -3 -23 -9z"/>
<path d="M3721 1328 c-1 -22 4 -28 19 -28 15 0 20 6 19 28 -2 23 -2 24 -6 5
-2 -13 -8 -23 -13 -23 -5 0 -11 10 -13 23 -4 19 -4 18 -6 -5z"/>
<path d="M3773 1334 c-3 -8 -1 -20 5 -26 16 -16 42 -2 42 22 0 24 -38 28 -47
4z m37 -10 c0 -17 -22 -14 -28 4 -2 7 3 12 12 12 9 0 16 -7 16 -16z"/>
<path d="M3832 1325 c0 -16 2 -22 5 -12 2 9 2 23 0 30 -3 6 -5 -1 -5 -18z"/>
<path d="M3873 1325 c0 -17 5 -25 18 -25 24 0 34 19 14 26 -13 6 -14 8 -3 15
9 6 7 9 -8 9 -16 0 -21 -6 -21 -25z"/>
<path d="M3932 1325 c0 -16 2 -22 5 -12 2 9 2 23 0 30 -3 6 -5 -1 -5 -18z"/>
<path d="M3951 1323 c2 -24 2 -25 6 -5 2 12 8 22 13 22 5 0 11 -10 13 -22 l4
-23 2 23 c0 12 5 22 10 22 5 0 12 -10 14 -22 4 -20 4 -19 6 5 1 25 -2 27 -34
27 -32 0 -35 -2 -34 -27z"/>
<path d="M4042 1325 c0 -16 2 -22 5 -12 2 9 2 23 0 30 -3 6 -5 -1 -5 -18z"/>
<path d="M4092 1325 c0 -16 2 -22 5 -12 2 9 2 23 0 30 -3 6 -5 -1 -5 -18z"/>
<path d="M2793 1143 c368 -2 966 -2 1330 0 364 1 64 2 -668 2 -731 0 -1029 -1
-662 -2z"/>
<path d="M2193 1103 c20 -5 21 -8 6 -35 -6 -11 -8 -22 -6 -25 5 -4 37 49 37
62 0 3 -12 4 -27 4 -17 -1 -21 -3 -10 -6z"/>
<path d="M2800 1094 c0 -9 9 -18 20 -21 11 -3 20 -10 20 -15 0 -6 -9 -8 -20
-5 -11 3 -20 1 -20 -4 0 -5 11 -9 25 -9 18 0 25 5 25 20 0 11 -6 20 -14 20 -8
0 -18 5 -22 12 -5 8 0 9 14 6 12 -4 22 -2 22 3 0 5 -11 9 -25 9 -16 0 -25 -6
-25 -16z"/>
<path d="M2910 1082 c0 -17 4 -34 10 -37 6 -4 7 6 3 27 -8 44 -13 48 -13 10z"/>
<path d="M3251 1079 c-1 -34 0 -36 34 -37 31 -1 35 1 35 23 0 20 -5 25 -22 24
-19 -1 -20 -2 -4 -6 17 -4 16 -6 -5 -17 -22 -11 -24 -10 -30 19 l-6 30 -2 -36z"/>
<path d="M2860 1065 c0 -18 5 -25 20 -25 15 0 20 7 20 25 0 18 -5 25 -20 25
-15 0 -20 -7 -20 -25z"/>
<path d="M2940 1065 c0 -18 5 -25 20 -25 15 0 20 7 20 25 0 18 -5 25 -20 25
-15 0 -20 -7 -20 -25z"/>
<path d="M2999 1081 c9 -6 10 -11 2 -15 -19 -12 -12 -26 12 -25 12 0 16 3 10
6 -9 3 -10 10 -3 24 9 16 7 19 -12 19 -17 0 -19 -3 -9 -9z"/>
<path d="M3042 1065 c0 -16 2 -22 5 -12 2 9 2 23 0 30 -3 6 -5 -1 -5 -18z"/>
<path d="M3063 1074 c-3 -8 -1 -20 5 -26 16 -16 42 -2 42 22 0 24 -38 28 -47
4z m37 -10 c0 -17 -22 -14 -28 4 -2 7 3 12 12 12 9 0 16 -7 16 -16z"/>
<path d="M3121 1063 c2 -24 2 -25 6 -5 2 12 8 22 13 22 5 0 11 -10 13 -22 4
-20 4 -19 6 5 1 21 -4 27 -19 27 -15 0 -20 -6 -19 -27z"/>
<path d="M3194 1081 c19 -7 19 -8 -3 -14 -27 -7 -19 -27 10 -27 14 0 19 7 19
25 0 19 -5 25 -22 24 -21 0 -22 -1 -4 -8z"/>
<path d="M2800 935 c0 -18 5 -25 20 -25 11 0 20 4 20 10 0 5 -7 7 -15 4 -9 -4
-15 0 -15 9 0 9 8 18 18 20 13 4 11 5 -5 6 -18 1 -23 -4 -23 -24z"/>
<path d="M2870 951 c13 -9 13 -11 -2 -11 -10 0 -18 -7 -18 -15 0 -9 10 -15 26
-15 21 0 25 4 22 22 -2 14 -11 24 -23 26 -17 3 -17 1 -5 -7z"/>
<path d="M2911 933 c2 -24 2 -25 6 -5 2 12 8 22 13 22 5 0 11 -10 13 -22 4
-20 4 -19 6 5 1 21 -4 27 -19 27 -15 0 -20 -6 -19 -27z"/>
<path d="M2969 951 c9 -6 10 -11 2 -15 -23 -15 -9 -24 34 -24 41 0 45 2 45 24
0 31 -39 34 -47 4 -3 -11 -9 -20 -15 -20 -5 0 -4 9 2 20 9 17 8 20 -12 20 -17
0 -19 -3 -9 -9z m71 -16 c0 -8 -4 -15 -10 -15 -5 0 -10 7 -10 15 0 8 5 15 10
15 6 0 10 -7 10 -15z"/>
<path d="M3060 935 c0 -14 5 -25 10 -25 6 0 10 9 10 20 0 27 18 25 23 -2 4
-20 4 -19 6 5 1 23 -3 27 -24 27 -20 0 -25 -5 -25 -25z"/>
<path d="M3120 935 c0 -18 5 -25 20 -25 15 0 20 7 20 25 0 18 -5 25 -20 25
-15 0 -20 -7 -20 -25z"/>
<path d="M2830 830 c0 -5 -7 -10 -15 -10 -9 0 -15 -9 -15 -24 0 -23 4 -25 50
-24 47 0 50 2 50 25 0 22 -4 25 -25 21 -17 -4 -25 -1 -25 8 0 8 -4 14 -10 14
-5 0 -10 -4 -10 -10z m0 -35 c0 -8 -4 -15 -10 -15 -5 0 -10 7 -10 15 0 8 5 15
10 15 6 0 10 -7 10 -15z"/>
<path d="M3020 831 c0 -5 -9 -11 -21 -14 -28 -7 -21 -41 9 -45 19 -3 22 1 22
32 0 20 -2 36 -5 36 -3 0 -5 -4 -5 -9z m0 -36 c0 -8 -7 -15 -15 -15 -8 0 -15
7 -15 15 0 8 7 15 15 15 8 0 15 -7 15 -15z"/>
<path d="M3180 800 c0 -28 2 -30 41 -30 36 0 40 2 37 22 -2 14 -11 24 -23 26
-17 3 -17 1 -5 -7 13 -9 13 -11 -2 -11 -10 0 -18 -4 -18 -10 0 -5 -5 -10 -11
-10 -7 0 -9 10 -5 25 4 14 2 25 -4 25 -5 0 -10 -13 -10 -30z"/>
<path d="M2913 795 c0 -18 5 -25 18 -25 11 0 19 7 19 15 0 8 -6 15 -12 15 -9
0 -8 4 2 10 12 8 11 10 -6 10 -16 0 -21 -6 -21 -25z"/>
<path d="M2962 795 c0 -16 2 -22 5 -12 2 9 2 23 0 30 -3 6 -5 -1 -5 -18z"/>
<path d="M3040 795 c0 -18 5 -25 20 -25 15 0 20 7 20 25 0 18 -5 25 -20 25
-15 0 -20 -7 -20 -25z"/>
<path d="M3090 795 c0 -14 4 -25 9 -25 5 0 11 11 13 25 4 17 1 25 -8 25 -8 0
-14 -11 -14 -25z"/>
<path d="M3144 811 c19 -7 19 -8 -3 -14 -27 -7 -19 -27 10 -27 14 0 19 7 19
25 0 19 -5 25 -22 24 -21 0 -22 -1 -4 -8z"/>
<path d="M2793 743 c368 -2 966 -2 1330 0 364 1 64 2 -668 2 -731 0 -1029 -1
-662 -2z"/>
<path d="M2180 665 c0 -32 3 -36 23 -33 17 2 22 10 22 33 0 23 -5 31 -22 33
-20 3 -23 -1 -23 -33z m30 -15 c0 -5 -2 -10 -4 -10 -3 0 -8 5 -11 10 -3 6 -1
10 4 10 6 0 11 -4 11 -10z"/>
<path d="M2800 684 c0 -9 9 -18 20 -21 11 -3 20 -10 20 -15 0 -6 -9 -8 -20 -5
-11 3 -20 1 -20 -4 0 -5 11 -9 25 -9 18 0 25 5 25 20 0 11 -6 20 -14 20 -8 0
-18 5 -22 12 -5 8 0 9 14 6 12 -4 22 -2 22 3 0 5 -11 9 -25 9 -16 0 -25 -6
-25 -16z"/>
<path d="M2910 672 c0 -17 4 -34 10 -37 6 -4 7 6 3 27 -8 44 -13 48 -13 10z"/>
<path d="M3251 669 c-1 -34 0 -36 34 -37 31 -1 35 1 35 23 0 20 -5 25 -22 24
-19 -1 -20 -2 -4 -6 17 -4 16 -6 -5 -17 -22 -11 -24 -10 -30 19 l-6 30 -2 -36z"/>
<path d="M2860 655 c0 -18 5 -25 20 -25 15 0 20 7 20 25 0 18 -5 25 -20 25
-15 0 -20 -7 -20 -25z"/>
<path d="M2940 655 c0 -18 5 -25 20 -25 15 0 20 7 20 25 0 18 -5 25 -20 25
-15 0 -20 -7 -20 -25z"/>
<path d="M2999 671 c9 -6 10 -11 2 -15 -19 -12 -12 -26 12 -25 12 0 16 3 10 6
-9 3 -10 10 -3 24 9 16 7 19 -12 19 -17 0 -19 -3 -9 -9z"/>
<path d="M3042 655 c0 -16 2 -22 5 -12 2 9 2 23 0 30 -3 6 -5 -1 -5 -18z"/>
<path d="M3063 664 c-3 -8 -1 -20 5 -26 16 -16 42 -2 42 22 0 24 -38 28 -47 4z
m37 -10 c0 -9 -5 -14 -12 -12 -18 6 -21 28 -4 28 9 0 16 -7 16 -16z"/>
<path d="M3121 653 c2 -24 2 -25 6 -5 2 12 8 22 13 22 5 0 11 -10 13 -22 4
-20 4 -19 6 5 1 21 -4 27 -19 27 -15 0 -20 -6 -19 -27z"/>
<path d="M3194 671 c19 -7 19 -8 -3 -14 -27 -7 -19 -27 10 -27 14 0 19 7 19
25 0 19 -5 25 -22 24 -21 0 -22 -1 -4 -8z"/>
<path d="M2861 538 c-1 -37 0 -38 34 -38 29 0 35 4 36 23 0 22 0 22 10 -2 7
-18 6 -27 -3 -33 -11 -6 -11 -8 0 -8 7 0 19 14 26 31 13 30 13 30 19 8 9 -33
16 -20 10 19 l-6 34 -17 -27 c-12 -18 -19 -22 -22 -13 -3 7 -19 14 -34 16 -22
1 -25 -1 -14 -8 13 -8 12 -10 -2 -10 -10 0 -19 -6 -19 -12 -1 -7 -5 3 -9 22
l-7 35 -2 -37z"/>
<path d="M3083 546 c4 -10 7 -24 7 -32 0 -8 4 -14 8 -14 13 0 6 54 -8 58 -9 3
-11 -1 -7 -12z"/>
<path d="M2800 513 c0 -21 4 -33 8 -27 4 6 15 13 25 17 25 9 17 41 -11 45 -19
3 -22 -1 -22 -35z m32 12 c0 -5 -5 -11 -11 -13 -6 -2 -11 4 -11 13 0 9 5 15
11 13 6 -2 11 -8 11 -13z"/>
<path d="M3012 525 c0 -16 2 -22 5 -12 2 9 2 23 0 30 -3 6 -5 -1 -5 -18z"/>
<path d="M3033 525 c0 -17 5 -25 18 -25 24 0 34 19 14 26 -13 6 -14 8 -3 15 9
6 7 9 -8 9 -16 0 -21 -6 -21 -25z"/>
<path d="M3142 525 c0 -16 2 -22 5 -12 2 9 2 23 0 30 -3 6 -5 -1 -5 -18z"/>
<path d="M3161 523 c2 -24 2 -25 6 -5 2 12 8 22 13 22 5 0 11 -10 13 -22 4
-20 4 -19 6 5 1 21 -4 27 -19 27 -15 0 -20 -6 -19 -27z"/>
<path d="M3234 535 c-3 -8 -3 -19 1 -25 8 -13 45 -13 45 0 0 5 -7 7 -15 4 -10
-4 -15 0 -15 11 0 11 5 15 15 11 8 -3 15 -1 15 4 0 16 -40 12 -46 -5z"/>
<path d="M3293 530 c1 -17 9 -26 25 -28 18 -3 22 1 22 22 0 32 -17 34 -23 4
-4 -23 -4 -23 -15 2 l-12 25 3 -25z"/>
<path d="M3352 525 c0 -16 2 -22 5 -12 2 9 2 23 0 30 -3 6 -5 -1 -5 -18z"/>
<path d="M2961 408 c-1 -35 0 -36 32 -35 25 2 32 6 32 22 0 29 -35 32 -43 3
-6 -21 -7 -20 -13 12 l-6 35 -2 -37z m56 -24 c-3 -3 -12 -4 -19 -1 -8 3 -5 6
6 6 11 1 17 -2 13 -5z"/>
<path d="M2802 395 c14 -31 23 -32 33 -2 l8 22 4 -22 c3 -15 12 -23 24 -23 14
0 19 7 18 28 -2 23 -2 24 -6 5 -5 -28 -23 -30 -23 -3 0 25 -18 26 -36 3 -13
-17 -13 -17 -14 0 0 9 -4 17 -10 17 -6 0 -5 -10 2 -25z"/>
<path d="M2903 404 c-3 -8 -1 -20 5 -26 16 -16 42 -2 42 22 0 24 -38 28 -47 4z
m37 -10 c0 -9 -5 -14 -12 -12 -18 6 -21 28 -4 28 9 0 16 -7 16 -16z"/>
<path d="M2938 290 c-9 -6 -25 -9 -35 -8 -46 4 -53 -1 -53 -36 0 -34 1 -34 44
-34 52 0 67 13 64 57 -1 17 -2 31 -3 31 0 0 -7 -5 -17 -10z m-38 -35 c0 -19
-4 -23 -17 -18 -11 4 -12 8 -5 11 7 2 12 10 12 18 0 8 2 14 5 14 3 0 5 -11 5
-25z m50 0 c0 -19 -4 -23 -17 -18 -11 4 -12 8 -5 11 7 2 12 10 12 18 0 8 2 14
5 14 3 0 5 -11 5 -25z"/>
<path d="M3100 280 c-19 -12 -21 -60 -2 -68 8 -3 20 1 26 9 6 8 20 14 31 14
13 0 20 7 20 20 0 28 -35 33 -42 6 -3 -12 -13 -21 -22 -21 -10 0 -12 3 -5 8
13 9 26 42 16 42 -4 0 -14 -4 -22 -10z m67 -36 c-3 -3 -12 -4 -19 -1 -8 3 -5
6 6 6 11 1 17 -2 13 -5z m-50 -20 c-3 -3 -12 -4 -19 -1 -8 3 -5 6 6 6 11 1 17
-2 13 -5z"/>
<path d="M2800 255 c0 -18 5 -25 20 -25 15 0 20 7 20 25 0 18 -5 25 -20 25
-15 0 -20 -7 -20 -25z"/>
<path d="M2973 260 c1 -17 9 -26 25 -28 18 -3 22 1 22 22 0 32 -17 34 -23 4
-4 -23 -4 -23 -15 2 l-12 25 3 -25z"/>
<path d="M3031 253 c2 -24 2 -25 6 -5 2 12 8 22 13 22 5 0 11 -10 13 -22 4
-20 4 -19 6 5 1 21 -4 27 -19 27 -15 0 -20 -6 -19 -27z"/>
<path d="M3190 255 c0 -14 2 -25 4 -25 2 0 6 11 8 25 3 14 1 25 -3 25 -5 0 -9
-11 -9 -25z"/>
<path d="M3220 255 c0 -18 5 -25 20 -25 15 0 20 7 20 25 0 18 -5 25 -20 25
-15 0 -20 -7 -20 -25z"/>
<path d="M2801 128 c-1 -22 4 -28 19 -28 15 0 20 6 19 28 -2 23 -2 24 -6 5 -2
-13 -8 -23 -13 -23 -5 0 -11 10 -13 23 -4 19 -4 18 -6 -5z"/>
<path d="M2850 125 c0 -14 5 -25 10 -25 6 0 10 9 10 20 0 27 18 25 23 -2 4
-20 4 -19 6 5 1 23 -3 27 -24 27 -20 0 -25 -5 -25 -25z"/>
<path d="M2910 125 c0 -18 5 -25 20 -25 15 0 20 7 20 25 0 18 -5 25 -20 25
-15 0 -20 -7 -20 -25z"/>
<path d="M2984 135 c-3 -8 -3 -19 1 -25 8 -13 45 -13 45 0 0 5 -7 7 -15 4 -10
-4 -15 0 -15 11 0 11 5 15 15 11 8 -3 15 -1 15 4 0 16 -40 12 -46 -5z"/>
<path d="M3040 125 c0 -18 5 -25 20 -25 15 0 20 7 20 25 0 18 -5 25 -20 25
-15 0 -20 -7 -20 -25z"/>
<path d="M3090 125 c0 -14 5 -25 10 -25 6 0 10 9 10 20 0 27 18 25 23 -2 4
-20 4 -19 6 5 1 23 -3 27 -24 27 -20 0 -25 -5 -25 -25z"/>
<path d="M3159 140 c9 -5 10 -10 2 -14 -24 -15 -9 -26 32 -23 35 2 43 6 45 24
3 19 -1 21 -44 21 -28 0 -42 -3 -35 -8z m31 -15 c0 -8 -7 -15 -16 -15 -14 0
-14 3 -4 15 7 8 14 15 16 15 2 0 4 -7 4 -15z m40 -1 c0 -9 -5 -14 -12 -12 -18
6 -21 28 -4 28 9 0 16 -7 16 -16z"/>
<path d="M3251 123 c2 -24 2 -25 6 -5 2 12 8 22 13 22 5 0 11 -10 13 -22 4
-20 4 -19 6 5 1 21 -4 27 -19 27 -15 0 -20 -6 -19 -27z"/>
<path d="M3304 135 c-8 -20 4 -35 27 -35 14 0 19 7 19 25 0 18 -5 25 -20 25
-11 0 -23 -7 -26 -15z"/>
<path d="M2783 63 c367 -2 967 -2 1335 0 367 1 66 2 -668 2 -734 0 -1035 -1
-667 -2z"/>
</g>
</svg>
